<?xml version="1.0" encoding="UTF-8" standalone="no"?>
<svg width="160px" height="160px" viewBox="0 0 160 160" version="1.1" xmlns="http://www.w3.org/2000/svg" xmlns:xlink="http://www.w3.org/1999/xlink" xmlns:sketch="http://www.bohemiancoding.com/sketch/ns">
    <!-- Generator: Sketch 3.2.2 (9983) - http://www.bohemiancoding.com/sketch -->
    <title>cdl-doubles</title>
    <desc>Created with Sketch.</desc>
    <defs></defs>
    <g id="Page-1" stroke="none" stroke-width="1" fill="none" fill-rule="evenodd" sketch:type="MSPage">
        <path d="M52.0219658,89.0395209 L52.0219658,59.6379442 L109.337139,59.6379442 L109.337139,89.0395209 L113.249237,89.0395209 L113.249237,85.7308672 L116.331717,85.7308672 L116.331717,95.5047434 L113.249237,95.5047434 L113.249237,92.1519804 L111.163574,92.1519804 L111.163574,98.55885 L106.660584,98.55885 C106.749423,99.0371598 106.790426,99.5329294 106.790426,100.039267 C106.790426,102.276893 105.889281,104.311432 104.428224,105.781741 L104.428224,105.791849 C102.974,107.265374 100.953031,108.174668 98.7275039,108.174668 C96.5083553,108.174668 94.494675,107.265374 93.026784,105.791849 L93.026784,105.785417 L93.0199503,105.781741 C91.5588931,104.308216 90.6577484,102.273677 90.6577484,100.039267 C90.6577484,99.5329294 90.6987509,99.0371598 90.7875898,98.55885 L69.4179769,98.55885 C69.5068158,99.0371598 69.5510074,99.5329294 69.5510074,100.039267 C69.5510074,102.283785 68.646218,104.318324 67.1851608,105.791849 C65.7277483,107.265374 63.7104233,108.174668 61.484441,108.174668 C59.2520804,108.174668 57.2379445,107.265374 55.7768873,105.791849 L55.7837211,105.785417 C54.3231195,104.308216 53.4146854,102.273677 53.4146854,100.039267 C53.4146854,99.5329294 53.4588771,99.0371598 53.5445268,98.55885 L49.7622703,98.55885 L49.7622703,92.1519804 L47.645628,92.1519804 L47.645628,95.5047434 L44.5631482,95.5047434 L44.5631482,85.7308672 L47.645628,85.7308672 L47.645628,89.0395209 L52.0219658,89.0395209 L52.0219658,89.0395209 Z M56.4119711,56.3605344 L60.9318178,52.6700599 L61.2830729,52.3842687 L61.7067658,52.556111 L64.8234145,53.8509015 L68.7692256,48.673118 L69.219798,48.0840756 L69.8275467,48.5178166 L73.5072969,51.1859672 L78.1086931,46.8480974 L78.5255523,46.4557088 L79.0171272,46.7415001 L83.3182937,49.2649172 L86.4107964,47.9944787 L87.0563586,47.7293636 L89.4969209,52.4389458 L92.69193,50.7453341 L93.1907942,50.4696513 L93.5935303,50.8762835 L96.2596066,53.5651103 L100.420909,52.0019885 L101.048703,51.7713338 L101.363056,52.363133 L103.732092,56.8117354 L102.380375,57.5450518 L100.328425,53.6923839 L96.3311332,55.193477 L95.8632487,55.3689951 L95.5188273,55.0179589 L92.9037764,52.3842687 L89.5347344,54.1743694 L88.8518143,54.5391897 L88.4932698,53.8472257 L86.3429144,49.702334 L83.5469967,50.8454989 L83.195286,50.9860971 L82.8745551,50.7935786 L78.7369432,48.3698668 L74.0981891,52.7523053 L73.6371383,53.18283 L73.1250621,52.8147934 L69.5341508,50.2151041 L65.679912,55.265614 L65.3213676,55.7305991 L64.7819564,55.5063771 L61.5459448,54.164261 L57.3814534,57.5620522 L56.4119711,56.3605344 L56.4119711,56.3605344 Z M94.2113019,84.849601 L97.2937817,84.849601 L97.2937817,68.8990503 L94.2113019,68.8990503 L94.2113019,84.849601 Z M78.5014064,84.849601 L81.5843418,84.849601 L81.5843418,68.8990503 L78.5014064,68.8990503 L78.5014064,84.849601 Z M63.9764842,84.849601 L67.0553194,84.849601 L67.0553194,68.8990503 L63.9764842,68.8990503 L63.9764842,84.849601 Z M105.387683,95.4496068 L108.081095,95.4496068 L108.081095,94.000434 L104.141662,94.000434 C104.237334,94.0937067 104.333007,94.1865199 104.428224,94.2830089 L104.428224,94.2931173 C104.783124,94.6478292 105.10431,95.0333257 105.387683,95.4496068 L105.387683,95.4496068 Z M93.3274693,94.000434 L66.8849311,94.000434 C66.9874374,94.0937067 67.0826545,94.1897362 67.1819717,94.2894415 L67.1851608,94.2830089 C67.5437052,94.6377208 67.8648918,95.0301094 68.1478093,95.4496068 L92.0573018,95.4496068 C92.343864,95.0301094 92.6650505,94.6377208 93.0199503,94.2830089 L93.026784,94.2894415 C93.1224566,94.1897362 93.224963,94.0937067 93.3274693,94.000434 L93.3274693,94.000434 Z M101.164877,97.577419 L101.161688,97.5810948 C100.537083,96.9511595 99.6764849,96.5652035 98.7275039,96.5652035 C97.7716891,96.5652035 96.9047132,96.9511595 96.2901307,97.570527 L96.2901307,97.5810948 C95.66917,98.2078138 95.2801014,99.0748364 95.2801014,100.039267 C95.2801014,101.003238 95.6618806,101.87072 96.2832969,102.493763 L96.2901307,102.504331 C96.9047132,103.124158 97.7716891,103.509655 98.7275039,103.509655 C99.6764849,103.509655 100.537083,103.120482 101.161688,102.493763 L101.164877,102.49698 C101.786293,101.87072 102.168528,100.999562 102.168528,100.039267 C102.168528,99.0748364 101.786293,98.2041381 101.164877,97.577419 L101.164877,97.577419 Z M56.0771171,94.000434 L52.8411055,94.000434 L52.8411055,95.4496068 L54.8142388,95.4496068 C55.100801,95.0301094 55.4219876,94.6377208 55.7768873,94.2830089 L55.7873658,94.2830089 C55.8793937,94.1865199 55.9819,94.0937067 56.0771171,94.000434 L56.0771171,94.000434 Z M63.9149804,97.570527 C63.3003979,96.9511595 62.4402557,96.5652035 61.484441,96.5652035 C60.5286262,96.5652035 59.6616502,96.9511595 59.0406896,97.577419 L59.0470677,97.5810948 C58.426107,98.2078138 58.0370385,99.0748364 58.0370385,100.039267 C58.0370385,101.003238 58.4188177,101.87072 59.0370449,102.493763 L59.0470677,102.493763 C59.668484,103.120482 60.5286262,103.509655 61.484441,103.509655 C62.4338776,103.509655 63.2940197,103.120482 63.9149804,102.493763 C64.5432305,101.867044 64.9259208,100.999562 64.9259208,100.039267 C64.9259208,99.0748364 64.5432305,98.2078138 63.9149804,97.5810948 L63.9149804,97.570527 L63.9149804,97.570527 Z M55.1044457,90.8916503 L106.251014,90.8916503 L106.251014,62.7435115 L55.1044457,62.7435115 L55.1044457,90.8916503 Z M130.224289,54.164261 L133.4603,55.5063771 L133.999711,55.7305991 L134.358256,55.265614 L138.212039,50.2151041 L141.803406,52.8147934 L142.315027,53.18283 L142.776077,52.7523053 L143.493166,52.0755039 L143.493166,49.9536648 L142.185641,51.1859672 L138.505891,48.5178166 L137.898142,48.0840756 L137.447569,48.673118 L133.501303,53.8509015 L130.384654,52.556111 L129.961417,52.3842687 L129.609706,52.6700599 L125.089859,56.3605344 L126.059797,57.5620522 L130.224289,54.164261 Z M143.493166,98.55885 L143.493166,95.4496068 L136.826153,95.4496068 C136.54278,95.0301094 136.222049,94.6377208 135.863505,94.2830089 L135.860316,94.2894415 C135.760998,94.1897362 135.665781,94.0937067 135.563275,94.000434 L143.493166,94.000434 L143.493166,90.8916503 L123.78279,90.8916503 L123.78279,62.7435115 L143.493166,62.7435115 L143.493166,59.6379442 L120.70031,59.6379442 L120.70031,89.0395209 L116.323972,89.0395209 L116.323972,85.7308672 L113.241492,85.7308672 L113.241492,95.5047434 L116.323972,95.5047434 L116.323972,92.1519804 L118.440614,92.1519804 L118.440614,98.55885 L122.222415,98.55885 C122.137221,99.0371598 122.093029,99.5329294 122.093029,100.039267 C122.093029,102.273677 123.001008,104.308216 124.462065,105.785417 L124.455231,105.791849 C125.916288,107.265374 127.929969,108.174209 130.162785,108.174209 C132.388312,108.174209 134.405637,107.265374 135.863505,105.791849 C137.324562,104.318324 138.229351,102.283785 138.229351,100.039267 C138.229351,99.5329294 138.184704,99.0371598 138.095865,98.55885 L143.493166,98.55885 Z M124.465254,94.2830089 L124.455231,94.2830089 C124.100331,94.6377208 123.779145,95.0301094 123.492583,95.4496068 L121.519449,95.4496068 L121.519449,94.000434 L124.755461,94.000434 C124.660244,94.0937067 124.557738,94.1865199 124.465254,94.2830089 L124.465254,94.2830089 Z M132.593324,102.493763 C131.972364,103.120482 131.111766,103.509655 130.162785,103.509655 C129.20697,103.509655 128.346828,103.120482 127.725412,102.493763 L127.715389,102.493763 C127.097162,101.87072 126.715382,101.003238 126.715382,100.039267 C126.715382,99.0748364 127.104451,98.2078138 127.725412,97.5810948 L127.718578,97.577419 C128.339994,96.9511595 129.20697,96.5652035 130.162785,96.5652035 C131.1186,96.5652035 131.978742,96.9511595 132.593324,97.570527 L132.593324,97.5810948 C133.221574,98.2078138 133.603809,99.0748364 133.603809,100.039267 C133.603809,100.999562 133.221574,101.867044 132.593324,102.493763 Z M132.654828,68.8990503 L135.733663,68.8990503 L135.733663,84.849601 L132.654828,84.849601 L132.654828,68.8990503 Z M16.7014664,50.096101 L17.6645705,49.702334 L19.814926,53.8472257 L20.1734704,54.5391897 L20.8563905,54.1743694 L24.2258882,52.3842687 L26.8404835,55.0179589 L27.1849048,55.3689951 L27.6527894,55.193477 L31.650537,53.6923839 L33.7020308,57.5450518 L35.0537479,56.8117354 L32.6847122,52.363133 L32.3703594,51.7713338 L31.742565,52.0019885 L27.5812627,53.5651103 L24.9151864,50.8762835 L24.5124504,50.4696513 L24.0140417,50.7453341 L20.8190326,52.4389458 L18.7023904,48.3560827 L18.3780147,47.7293636 L17.7329081,47.9944787 L16.7014664,48.4181113 L16.7014664,50.096101 Z M44.5708931,85.7308672 L44.5708931,89.0395209 L40.6587952,89.0395209 L40.6587952,59.6379442 L16.7014664,59.6379442 L16.7014664,62.7435115 L37.5731262,62.7435115 L37.5731262,90.8916503 L16.7014664,90.8916503 L16.7014664,94.000434 L24.6491255,94.000434 C24.5466191,94.0937067 24.4441128,94.1897362 24.3484402,94.2894415 L24.3416064,94.2830089 C23.9867067,94.6377208 23.6655201,95.0301094 23.3789579,95.4496068 L16.7014664,95.4496068 L16.7014664,98.55885 L22.1092459,98.55885 C22.0204071,99.0371598 21.9794045,99.5329294 21.9794045,100.039267 C21.9794045,102.273677 22.8805493,104.308216 24.3416064,105.781741 L24.3484402,105.785417 L24.3484402,105.791849 C25.8163311,107.265374 27.830467,108.174209 30.0491601,108.174209 C32.2751424,108.174209 34.2956565,107.265374 35.7498799,105.791849 L35.7498799,105.781741 C37.2109371,104.311432 38.1125374,102.276893 38.1125374,100.039267 C38.1125374,99.5329294 38.0715349,99.0371598 37.982696,98.55885 L42.4852305,98.55885 L42.4852305,92.1519804 L44.5708931,92.1519804 L44.5708931,95.5047434 L47.6533729,95.5047434 L47.6533729,85.7308672 L44.5708931,85.7308672 Z M32.4865333,102.49698 L32.4833442,102.493763 C31.8587388,103.120482 30.9985967,103.509655 30.0491601,103.509655 C29.0933453,103.509655 28.2263693,103.123699 27.6117868,102.504331 L27.6054087,102.493763 C26.9839924,101.87072 26.6017576,101.003238 26.6017576,100.039267 C26.6017576,99.0748364 26.9908261,98.2078138 27.6117868,97.5810948 L27.6117868,97.570527 C28.2263693,96.9511595 29.0933453,96.5652035 30.0491601,96.5652035 C30.9985967,96.5652035 31.8587388,96.9511595 32.4833442,97.5810948 L32.4865333,97.577419 C33.1079496,98.2041381 33.4906399,99.0748364 33.4906399,100.039267 C33.4906399,100.999562 33.1079496,101.87072 32.4865333,102.49698 L32.4865333,102.49698 Z M39.4027507,95.4496068 L36.7093394,95.4496068 C36.4259662,95.0333257 36.1052353,94.6478292 35.7498799,94.2931173 L35.7498799,94.2830089 C35.6546629,94.1865199 35.5589903,94.0937067 35.4633177,94.000434 L39.4027507,94.000434 L39.4027507,95.4496068 Z M25.532958,68.8990503 L28.6154379,68.8990503 L28.6154379,84.849601 L25.532958,84.849601 L25.532958,68.8990503 Z" id="Fill-1" fill="#206BB5" sketch:type="MSShapeGroup"></path>
    </g>
</svg>