<?xml version="1.0" encoding="UTF-8" standalone="no"?>
<svg width="160px" height="160px" viewBox="0 0 160 160" version="1.1" xmlns="http://www.w3.org/2000/svg" xmlns:xlink="http://www.w3.org/1999/xlink" xmlns:sketch="http://www.bohemiancoding.com/sketch/ns">
    <!-- Generator: Sketch 3.2.2 (9983) - http://www.bohemiancoding.com/sketch -->
    <title>cdl-hazmet</title>
    <desc>Created with Sketch.</desc>
    <defs></defs>
    <g id="Page-1" stroke="none" stroke-width="1" fill="none" fill-rule="evenodd" sketch:type="MSPage">
        <path d="M73.5265064,46.6391898 C77.1017182,40.4093082 82.894519,40.4027514 86.4734936,46.6391898 L121.526506,107.719801 C125.101718,113.949683 122.17517,119 115.003095,119 L44.9969046,119 C37.8189124,119 34.894519,113.95624 38.4734936,107.719801 L73.5265064,46.6391898 Z" id="Rectangle-1" stroke="#206BB5" stroke-width="6" sketch:type="MSShapeGroup"></path>
        <path d="M83.12,93.232 L77.84,93.232 L77.84,71.848 L83.12,71.848 L83.12,93.232 Z M76.96,99.92 C76.96,98.9813286 77.3046632,98.17467 77.994,97.5 C78.6833368,96.82533 79.5119952,96.488 80.48,96.488 C81.4186714,96.488 82.2399965,96.8106634 82.944,97.456 C83.6480035,98.1013366 84,98.8933286 84,99.832 C84,100.770671 83.6553368,101.57733 82.966,102.252 C82.2766632,102.92667 81.4480048,103.264 80.48,103.264 C80.0106643,103.264 79.5633355,103.176001 79.138,103 C78.7126645,102.823999 78.3386683,102.589335 78.016,102.296 C77.6933317,102.002665 77.4366676,101.650669 77.246,101.24 C77.0553324,100.829331 76.96,100.389336 76.96,99.92 L76.96,99.92 Z" id="!" fill="#206BB5" sketch:type="MSShapeGroup"></path>
    </g>
</svg>