<?xml version="1.0" encoding="UTF-8" standalone="no"?>
<svg width="160px" height="160px" viewBox="0 0 160 160" version="1.1" xmlns="http://www.w3.org/2000/svg" xmlns:xlink="http://www.w3.org/1999/xlink" xmlns:sketch="http://www.bohemiancoding.com/sketch/ns">
    <!-- Generator: Sketch 3.2.2 (9983) - http://www.bohemiancoding.com/sketch -->
    <title>cdl-combo</title>
    <desc>Created with Sketch.</desc>
    <defs></defs>
    <g id="Page-1" stroke="none" stroke-width="1" fill="none" fill-rule="evenodd" sketch:type="MSPage">
        <g id="Imported-Layers" sketch:type="MSLayerGroup" transform="translate(7.000000, 46.000000)" fill="#206BB5">
            <path d="M45.107,9.13533333 L45.107,7.2225 L18.5837568,7.2225 L18.0388108,8.2115 L5.7337027,30.4141667 L5.48981081,30.855 L5.48981081,42.1556667 L0.874918919,42.1556667 L0.874918919,56.2738333 L8.47367568,56.2738333 C8.90810811,58.2096667 9.88367568,59.9385 11.2327027,61.2916667 C13.0885676,63.1661667 15.6570541,64.3161667 18.4922973,64.3161667 C21.3237297,64.3161667 23.8922162,63.1661667 25.7518919,61.2916667 C27.0971081,59.9385 28.0726757,58.2096667 28.5071081,56.2738333 L50.5297838,56.2738333 C50.9604054,58.2096667 51.9321622,59.9385 53.285,61.2916667 C55.1408649,63.1661667 57.7093514,64.3161667 60.5445946,64.3161667 C63.376027,64.3161667 65.9445135,63.1661667 67.8041892,61.2916667 C69.1532162,59.9385 70.1287838,58.2096667 70.5632162,56.2738333 L78.0247838,56.2738333 L78.0247838,42.1556667 L45.107,42.1556667 L45.107,9.13533333 L45.107,9.13533333 Z M20.8016486,11.0481667 L31.0832162,11.0481667 L31.0832162,29.4213333 L10.6153514,29.4213333 L20.8016486,11.0481667 L20.8016486,11.0481667 Z M9.28537838,33.2508333 L34.8825946,33.2508333 L34.8825946,11.0481667 L41.3038108,11.0481667 L41.3038108,42.1556667 L9.28537838,42.1556667 L9.28537838,33.2508333 L9.28537838,33.2508333 Z M11.2327027,46.6866667 C9.71218919,48.2123333 8.67183784,50.2095 8.33648649,52.4443333 L4.6742973,52.4443333 L4.6742973,45.9851667 L12.0024865,45.9851667 C11.7319189,46.2113333 11.4765946,46.4413333 11.2327027,46.6866667 L11.2327027,46.6866667 Z M21.7200541,57.2398333 C20.8931081,58.0678333 19.7498649,58.5853333 18.4922973,58.5853333 C17.2271081,58.5853333 16.0838649,58.0678333 15.2607297,57.2398333 C14.4337838,56.408 13.9231351,55.258 13.9231351,53.993 C13.9231351,52.7241667 14.4337838,51.5741667 15.2607297,50.7423333 C16.0838649,49.9143333 17.2271081,49.3968333 18.4922973,49.3968333 C19.7498649,49.3968333 20.8931081,49.9143333 21.7200541,50.7423333 C22.547,51.5741667 23.0576486,52.7241667 23.0576486,53.993 C23.0576486,55.258 22.547,56.408 21.7200541,57.2398333 L21.7200541,57.2398333 Z M74.2254054,45.9851667 L74.2254054,52.4443333 L70.6965946,52.4443333 C70.3650541,50.2095 69.3170811,48.2123333 67.8041892,46.6866667 C67.5602973,46.4413333 67.3011622,46.2113333 67.0305946,45.9851667 L74.2254054,45.9851667 L74.2254054,45.9851667 Z M57.3168378,50.7423333 C58.139973,49.9143333 59.2832162,49.3968333 60.5445946,49.3968333 C61.8021622,49.3968333 62.9454054,49.9143333 63.7723514,50.7423333 C64.5992973,51.5741667 65.1099459,52.7241667 65.1099459,53.993 C65.1099459,55.258 64.5992973,56.408 63.7723514,57.2398333 C62.9454054,58.0678333 61.8021622,58.5853333 60.5445946,58.5853333 C59.2832162,58.5853333 58.139973,58.0678333 57.3168378,57.2398333 C56.4898919,56.408 55.9792432,55.258 55.9792432,53.993 C55.9792432,52.7241667 56.4898919,51.5741667 57.3168378,50.7423333 L57.3168378,50.7423333 Z M54.0585946,45.9851667 C53.7842162,46.2113333 53.5288919,46.4413333 53.285,46.6866667 C51.7682973,48.2123333 50.7241351,50.2095 50.3925946,52.4443333 L28.6442973,52.4443333 C28.3089459,50.2095 27.2647838,48.2123333 25.7518919,46.6866667 C25.508,46.4413333 25.2450541,46.2113333 24.9782973,45.9851667 L54.0585946,45.9851667 L54.0585946,45.9851667 Z" id="Fill-1" sketch:type="MSShapeGroup"></path>
            <path d="M47.9612973,39.3611667 L138.906297,39.3611667 L138.906297,0.268833333 L47.9612973,0.268833333 L47.9612973,39.3611667 Z M51.7721081,4.09833333 L135.095486,4.09833333 L135.095486,35.524 L51.7721081,35.524 L51.7721081,4.09833333 Z" id="Fill-2" sketch:type="MSShapeGroup"></path>
            <path d="M104.887189,42.1556667 L80.6694865,42.1556667 L80.6694865,56.2738333 L88.1310541,56.2738333 C88.5654865,58.2096667 89.5410541,59.9385 90.8862703,61.2916667 C92.7459459,63.1661667 95.3144324,64.3161667 98.1458649,64.3161667 C100.984919,64.3161667 103.553405,63.1661667 105.40927,61.2916667 C106.758297,59.9385 107.730054,58.2096667 108.164486,56.2738333 L110.309973,56.2738333 C110.744405,58.2096667 111.716162,59.9385 113.069,61.2916667 C114.924865,63.1661667 117.489541,64.3161667 120.328595,64.3161667 C123.160027,64.3161667 125.728514,63.1661667 127.588189,61.2916667 C128.933405,59.9385 129.908973,58.2096667 130.343405,56.2738333 L137.804973,56.2738333 L137.804973,42.1556667 L104.887189,42.1556667 L104.887189,42.1556667 Z M90.8862703,46.6866667 C89.3733784,48.2123333 88.3292162,50.2095 87.9976757,52.4443333 L84.4688649,52.4443333 L84.4688649,45.9851667 L91.6598649,45.9851667 C91.3931081,46.2113333 91.133973,46.4413333 90.8862703,46.6866667 L90.8862703,46.6866667 Z M101.377432,57.2398333 C100.554297,58.0678333 99.4110541,58.5853333 98.1458649,58.5853333 C96.8882973,58.5853333 95.7450541,58.0678333 94.9181081,57.2398333 C94.094973,56.408 93.5805135,55.258 93.5805135,53.993 C93.5805135,52.7241667 94.094973,51.5741667 94.9181081,50.7423333 C95.7450541,49.9143333 96.8882973,49.3968333 98.1458649,49.3968333 C99.4110541,49.3968333 100.554297,49.9143333 101.377432,50.7423333 C102.204378,51.5741667 102.715027,52.7241667 102.715027,53.993 C102.715027,55.258 102.204378,56.408 101.377432,57.2398333 L101.377432,57.2398333 Z M134.005595,45.9851667 L134.005595,52.4443333 L130.480595,52.4443333 C130.145243,50.2095 129.101081,48.2123333 127.588189,46.6866667 C127.340486,46.4413333 127.081351,46.2113333 126.814595,45.9851667 L134.005595,45.9851667 L134.005595,45.9851667 Z M117.100838,50.7423333 C117.923973,49.9143333 119.063405,49.3968333 120.328595,49.3968333 C121.586162,49.3968333 122.729405,49.9143333 123.556351,50.7423333 C124.379486,51.5741667 124.893946,52.7241667 124.893946,53.993 C124.893946,55.258 124.379486,56.408 123.556351,57.2398333 C122.729405,58.0678333 121.586162,58.5853333 120.328595,58.5853333 C119.063405,58.5853333 117.923973,58.0678333 117.100838,57.2398333 C116.273892,56.408 115.759432,55.258 115.759432,53.993 C115.759432,52.7241667 116.273892,51.5741667 117.100838,50.7423333 L117.100838,50.7423333 Z M113.838784,45.9851667 C113.568216,46.2151667 113.312892,46.4413333 113.069,46.6866667 C111.548486,48.2123333 110.508135,50.2095 110.172784,52.4443333 L108.301676,52.4443333 C107.966324,50.2095 106.925973,48.2123333 105.40927,46.6866667 C105.165378,46.4413333 104.906243,46.2151667 104.635676,45.9851667 L113.838784,45.9851667 L113.838784,45.9851667 Z" id="Fill-3" sketch:type="MSShapeGroup"></path>
        </g>
    </g>
</svg>