<?xml version="1.0" encoding="UTF-8" standalone="no"?>
<svg width="160px" height="160px" viewBox="0 0 160 160" version="1.1" xmlns="http://www.w3.org/2000/svg" xmlns:xlink="http://www.w3.org/1999/xlink" xmlns:sketch="http://www.bohemiancoding.com/sketch/ns">
    <!-- Generator: Sketch 3.2.2 (9983) - http://www.bohemiancoding.com/sketch -->
    <title>cdl-doubles</title>
    <desc>Created with Sketch.</desc>
    <defs></defs>
    <g id="Page-1" stroke="none" stroke-width="1" fill="none" fill-rule="evenodd" sketch:type="MSPage">
        <path d="M12.3507878,90.9055884 L12.3507878,60.3200777 L74.4116204,60.3200777 L74.4116204,90.9055884 L78.64717,90.9055884 L78.64717,87.461968 L81.9856461,87.461968 L81.9856461,97.6277996 L78.64717,97.6277996 L78.64717,94.1401712 L76.3912383,94.1401712 L76.3912383,100.807372 L71.5160033,100.807372 C71.6106313,101.302462 71.6560528,101.819555 71.6560528,102.34765 C71.6560528,104.672736 70.6794917,106.792451 69.0973115,108.321726 L69.0973115,108.329061 C67.5227014,109.862004 65.3349019,110.808174 62.9237802,110.808174 C60.5202288,110.808174 58.3399995,109.862004 56.750249,108.329061 L56.750249,108.321726 L56.7426788,108.321726 C55.1604985,106.788784 54.1877226,104.669068 54.1877226,102.34765 C54.1877226,101.819555 54.2293589,101.302462 54.327772,100.807372 L31.1855465,100.807372 C31.2839596,101.302462 31.329381,101.819555 31.329381,102.34765 C31.329381,104.68007 30.35282,106.796118 28.7706397,108.329061 C27.1922445,109.862004 25.004445,110.808174 22.5971085,110.808174 C20.1784166,110.808174 17.9981873,109.862004 16.416007,108.329061 L16.4235773,108.321726 C14.841397,106.788784 13.8572657,104.669068 13.8572657,102.34765 C13.8572657,101.819555 13.9064723,101.302462 13.9973152,100.807372 L9.90181498,100.807372 L9.90181498,94.1401712 L7.6118172,94.1401712 L7.6118172,97.6277996 L4.27334109,97.6277996 L4.27334109,87.461968 L7.6118172,87.461968 L7.6118172,90.9055884 L12.3507878,90.9055884 L12.3507878,90.9055884 Z M58.0334048,86.5451361 L61.3718809,86.5451361 L61.3718809,69.9541469 L58.0334048,69.9541469 L58.0334048,86.5451361 Z M41.0230741,86.5451361 L44.3615503,86.5451361 L44.3615503,69.9541469 L41.0230741,69.9541469 L41.0230741,86.5451361 Z M25.2958993,86.5451361 L28.6305903,86.5451361 L28.6305903,69.9541469 L25.2958993,69.9541469 L25.2958993,86.5451361 Z M70.1344344,97.5727897 L73.0527622,97.5727897 L73.0527622,96.0655181 L68.7869316,96.0655181 C68.8891298,96.1608686 68.9951132,96.2562191 69.0973115,96.3589043 L69.0973115,96.3699063 C69.4796086,96.736639 69.8278397,97.1400451 70.1344344,97.5727897 L70.1344344,97.5727897 Z M57.0757694,96.0655181 L28.4451194,96.0655181 C28.5548879,96.1608686 28.6570861,96.2598865 28.7668546,96.366239 L28.7706397,96.3589043 C29.156722,96.7256371 29.504953,97.1363777 29.8115478,97.5727897 L55.7017707,97.5727897 C56.0121506,97.1363777 56.3603816,96.7256371 56.7426788,96.3589043 L56.750249,96.366239 C56.8562324,96.2598865 56.9660009,96.1608686 57.0757694,96.0655181 L57.0757694,96.0655181 Z M65.5620091,99.7841881 L65.558224,99.7878555 C64.8844726,99.1350712 63.953333,98.7316652 62.9237802,98.7316652 C61.8904424,98.7316652 60.9517326,99.1350712 60.2855514,99.7768535 L60.2855514,99.7878555 C59.6118,100.44064 59.1916516,101.342802 59.1916516,102.34765 C59.1916516,103.34883 59.6042297,104.250993 60.2779811,104.90011 L60.2855514,104.911112 C60.9517326,105.556561 61.8904424,105.9563 62.9237802,105.9563 C63.953333,105.9563 64.8844726,105.552894 65.558224,104.90011 L65.5620091,104.903777 C66.2357605,104.250993 66.6521237,103.345163 66.6521237,102.34765 C66.6521237,101.342802 66.2357605,100.436972 65.5620091,99.7841881 L65.5620091,99.7841881 Z M16.7415274,96.0655181 L13.236506,96.0655181 L13.236506,97.5727897 L15.3750989,97.5727897 C15.6854788,97.1363777 16.0299248,96.7256371 16.416007,96.3589043 L16.4273624,96.3589043 C16.5257755,96.2562191 16.6393291,96.1608686 16.7415274,96.0655181 L16.7415274,96.0655181 Z M25.2277671,99.7768535 C24.5615859,99.1350712 23.6304463,98.7316652 22.5971085,98.7316652 C21.5599855,98.7316652 20.6212757,99.1350712 19.9513094,99.7841881 L19.9550945,99.7878555 C19.2851282,100.44064 18.8649799,101.342802 18.8649799,102.34765 C18.8649799,103.34883 19.277558,104.250993 19.9475243,104.90011 L19.9550945,104.90011 C20.6288459,105.552894 21.5599855,105.9563 22.5971085,105.9563 C23.6228761,105.9563 24.5540157,105.552894 25.2277671,104.90011 C25.9090888,104.247326 26.3216669,103.345163 26.3216669,102.34765 C26.3216669,101.342802 25.9090888,100.44064 25.2277671,99.7878555 L25.2277671,99.7768535 L25.2277671,99.7768535 Z M15.6892639,92.8309353 L71.0731443,92.8309353 L71.0731443,63.5509932 L15.6892639,63.5509932 L15.6892639,92.8309353 Z" id="Imported-Layers" fill="#206BB5" sketch:type="MSShapeGroup"></path>
        <path d="M86.4493294,90.9055884 L86.4493294,60.3200777 L148.510162,60.3200777 L148.510162,90.9055884 L152.745712,90.9055884 L152.745712,87.461968 L156.084188,87.461968 L156.084188,97.6277996 L152.745712,97.6277996 L152.745712,94.1401712 L150.48978,94.1401712 L150.48978,100.807372 L145.614545,100.807372 C145.709173,101.302462 145.754594,101.819555 145.754594,102.34765 C145.754594,104.672736 144.778033,106.792451 143.195853,108.321726 L143.195853,108.329061 C141.621243,109.862004 139.433443,110.808174 137.022322,110.808174 C134.61877,110.808174 132.438541,109.862004 130.848791,108.329061 L130.848791,108.321726 L130.84122,108.321726 C129.25904,106.788784 128.286264,104.669068 128.286264,102.34765 C128.286264,101.819555 128.3279,101.302462 128.426314,100.807372 L105.284088,100.807372 C105.382501,101.302462 105.427923,101.819555 105.427923,102.34765 C105.427923,104.68007 104.451362,106.796118 102.869181,108.329061 C101.290786,109.862004 99.1029866,110.808174 96.6956501,110.808174 C94.2769582,110.808174 92.0967289,109.862004 90.5145486,108.329061 L90.5221189,108.321726 C88.9399386,106.788784 87.9558073,104.669068 87.9558073,102.34765 C87.9558073,101.819555 88.0050139,101.302462 88.0958567,100.807372 L84.0003566,100.807372 L84.0003566,94.1401712 L81.7103588,94.1401712 L81.7103588,97.6277996 L78.3718827,97.6277996 L78.3718827,87.461968 L81.7103588,87.461968 L81.7103588,90.9055884 L86.4493294,90.9055884 L86.4493294,90.9055884 Z M132.131946,86.5451361 L135.470422,86.5451361 L135.470422,69.9541469 L132.131946,69.9541469 L132.131946,86.5451361 Z M115.121616,86.5451361 L118.460092,86.5451361 L118.460092,69.9541469 L115.121616,69.9541469 L115.121616,86.5451361 Z M99.3944409,86.5451361 L102.729132,86.5451361 L102.729132,69.9541469 L99.3944409,69.9541469 L99.3944409,86.5451361 Z M144.232976,97.5727897 L147.151304,97.5727897 L147.151304,96.0655181 L142.885473,96.0655181 C142.987671,96.1608686 143.093655,96.2562191 143.195853,96.3589043 L143.195853,96.3699063 C143.57815,96.736639 143.926381,97.1400451 144.232976,97.5727897 L144.232976,97.5727897 Z M131.174311,96.0655181 L102.543661,96.0655181 C102.653429,96.1608686 102.755628,96.2598865 102.865396,96.366239 L102.869181,96.3589043 C103.255264,96.7256371 103.603495,97.1363777 103.910089,97.5727897 L129.800312,97.5727897 C130.110692,97.1363777 130.458923,96.7256371 130.84122,96.3589043 L130.848791,96.366239 C130.954774,96.2598865 131.064542,96.1608686 131.174311,96.0655181 L131.174311,96.0655181 Z M139.660551,99.7841881 L139.656766,99.7878555 C138.983014,99.1350712 138.051875,98.7316652 137.022322,98.7316652 C135.988984,98.7316652 135.050274,99.1350712 134.384093,99.7768535 L134.384093,99.7878555 C133.710342,100.44064 133.290193,101.342802 133.290193,102.34765 C133.290193,103.34883 133.702771,104.250993 134.376523,104.90011 L134.384093,104.911112 C135.050274,105.556561 135.988984,105.9563 137.022322,105.9563 C138.051875,105.9563 138.983014,105.552894 139.656766,104.90011 L139.660551,104.903777 C140.334302,104.250993 140.750665,103.345163 140.750665,102.34765 C140.750665,101.342802 140.334302,100.436972 139.660551,99.7841881 L139.660551,99.7841881 Z M90.840069,96.0655181 L87.3350476,96.0655181 L87.3350476,97.5727897 L89.4736405,97.5727897 C89.7840204,97.1363777 90.1284663,96.7256371 90.5145486,96.3589043 L90.525904,96.3589043 C90.6243171,96.2562191 90.7378707,96.1608686 90.840069,96.0655181 L90.840069,96.0655181 Z M99.3263087,99.7768535 C98.6601275,99.1350712 97.7289879,98.7316652 96.6956501,98.7316652 C95.6585271,98.7316652 94.7198173,99.1350712 94.049851,99.7841881 L94.0536361,99.7878555 C93.3836698,100.44064 92.9635215,101.342802 92.9635215,102.34765 C92.9635215,103.34883 93.3760996,104.250993 94.0460659,104.90011 L94.0536361,104.90011 C94.7273875,105.552894 95.6585271,105.9563 96.6956501,105.9563 C97.7214177,105.9563 98.6525573,105.552894 99.3263087,104.90011 C100.00763,104.247326 100.420208,103.345163 100.420208,102.34765 C100.420208,101.342802 100.00763,100.44064 99.3263087,99.7878555 L99.3263087,99.7768535 L99.3263087,99.7768535 Z M89.7878055,92.8309353 L145.171686,92.8309353 L145.171686,63.5509932 L89.7878055,63.5509932 L89.7878055,92.8309353 Z" id="Imported-Layers" fill="#206BB5" sketch:type="MSShapeGroup"></path>
    </g>
</svg>