<?xml version="1.0" encoding="UTF-8" standalone="no"?>
<svg width="160px" height="160px" viewBox="0 0 160 160" version="1.1" xmlns="http://www.w3.org/2000/svg" xmlns:xlink="http://www.w3.org/1999/xlink" xmlns:sketch="http://www.bohemiancoding.com/sketch/ns">
    <!-- Generator: Sketch 3.2.2 (9983) - http://www.bohemiancoding.com/sketch -->
    <title>cdl-combo</title>
    <desc>Created with Sketch.</desc>
    <defs></defs>
    <g id="Page-1" stroke="none" stroke-width="1" fill="none" fill-rule="evenodd" sketch:type="MSPage">
        <path d="M17.4229308,89.5061565 L17.4229308,61.2078153 L74.8428846,61.2078153 L74.8428846,89.5061565 L78.7617019,89.5061565 L78.7617019,86.3200483 L81.8505284,86.3200483 L81.8505284,95.725684 L78.7617019,95.725684 L78.7617019,92.4988588 L76.6744676,92.4988588 L76.6744676,98.66749 L72.1638004,98.66749 C72.2513521,99.1255566 72.293377,99.6039818 72.293377,100.092586 C72.293377,102.243803 71.3898427,104.205007 69.9259771,105.619924 L69.9259771,105.62671 C68.4691156,107.04502 66.4449186,107.920437 64.2140995,107.920437 C61.9902845,107.920437 59.9730917,107.04502 58.5022219,105.62671 L58.5022219,105.619924 L58.4952178,105.619924 C57.0313522,104.201614 56.13132,102.24041 56.13132,100.092586 C56.13132,99.6039818 56.1698427,99.1255566 56.2608966,98.66749 L34.8492354,98.66749 C34.9402892,99.1255566 34.982314,99.6039818 34.982314,100.092586 C34.982314,102.250589 34.0787798,104.2084 32.6149141,105.62671 C31.1545506,107.04502 29.1303536,107.920437 26.9030366,107.920437 C24.6652133,107.920437 22.6480205,107.04502 21.1841549,105.62671 L21.191159,105.619924 C19.7272934,104.201614 18.816755,102.24041 18.816755,100.092586 C18.816755,99.6039818 18.8622819,99.1255566 18.9463316,98.66749 L15.1570909,98.66749 L15.1570909,92.4988588 L13.038338,92.4988588 L13.038338,95.725684 L9.94951154,95.725684 L9.94951154,86.3200483 L13.038338,86.3200483 L13.038338,89.5061565 L17.4229308,89.5061565 L17.4229308,89.5061565 Z M21.8215318,58.0522449 L26.3497094,54.4996834 L26.6999165,54.2248433 L27.123667,54.3911046 L30.2475142,55.6363673 L34.2013522,50.6519233 L34.6531194,50.0852779 L35.2589776,50.5026275 L38.9466583,53.0711939 L43.5588856,48.8976976 L43.975632,48.5176719 L44.4659219,48.7925119 L48.7769712,51.2219618 L51.8763039,50.0004507 L52.5206849,49.7459692 L54.9686324,54.2791327 L58.1660231,52.6470581 L58.6668193,52.3823974 L59.0695574,52.7726023 L61.7416375,55.3615273 L65.9091018,53.85839 L66.5394746,53.6344463 L66.8546609,54.2044848 L69.229065,58.48656 L67.8737636,59.1923219 L65.818048,55.4836784 L61.8116789,56.9291333 L61.3459035,57.0987876 L60.9991985,56.7594789 L58.3796495,54.2248433 L55.0036532,55.9485313 L54.3207493,56.2980192 L53.960036,55.6329742 L51.8062625,51.6427045 L49.0046058,52.7454576 L48.6543987,52.8811811 L48.3322082,52.6945613 L44.1857563,50.3601179 L39.5385082,54.5811174 L39.0762349,54.995074 L38.5649325,54.6387999 L34.9648037,52.1380952 L31.1055216,56.996995 L30.7448083,57.4448824 L30.2054894,57.231118 L26.9625718,55.938352 L22.7916054,59.2092874 L21.8215318,58.0522449 L21.8215318,58.0522449 Z M59.689424,85.4717767 L62.7782505,85.4717767 L62.7782505,70.1214535 L59.689424,70.1214535 L59.689424,85.4717767 Z M43.9511175,85.4717767 L47.039944,85.4717767 L47.039944,70.1214535 L43.9511175,70.1214535 L43.9511175,85.4717767 Z M29.4000131,85.4717767 L32.4853375,85.4717767 L32.4853375,70.1214535 L29.4000131,70.1214535 L29.4000131,85.4717767 Z M70.8855445,95.6747877 L73.5856411,95.6747877 L73.5856411,94.2802292 L69.6388073,94.2802292 C69.7333632,94.3684494 69.8314212,94.4566697 69.9259771,94.5516761 L69.9259771,94.5618553 C70.2796862,94.901164 70.6018768,95.2744035 70.8855445,95.6747877 L70.8855445,95.6747877 Z M58.8034,94.2802292 L32.313736,94.2802292 C32.4152961,94.3684494 32.509852,94.4600627 32.6114121,94.5584622 L32.6149141,94.5516761 C32.9721254,94.8909847 33.2943159,95.2710104 33.5779836,95.6747877 L57.5321483,95.6747877 C57.8193181,95.2710104 58.1415086,94.8909847 58.4952178,94.5516761 L58.5022219,94.5584622 C58.6002799,94.4600627 58.70184,94.3684494 58.8034,94.2802292 L58.8034,94.2802292 Z M66.6550429,97.7208188 L66.6515408,97.7242119 C66.0281722,97.1202425 65.1666628,96.747003 64.2140995,96.747003 C63.2580342,96.747003 62.3895206,97.1202425 61.7731561,97.7140327 L61.7731561,97.7242119 C61.1497875,98.3281813 60.7610576,99.1628806 60.7610576,100.092586 C60.7610576,101.018899 61.1427834,101.853598 61.766152,102.454174 L61.7731561,102.464354 C62.3895206,103.061537 63.2580342,103.431383 64.2140995,103.431383 C65.1666628,103.431383 66.0281722,103.058144 66.6515408,102.454174 L66.6550429,102.457568 C67.2784115,101.853598 67.6636393,101.015506 67.6636393,100.092586 C67.6636393,99.1628806 67.2784115,98.3247882 66.6550429,97.7208188 L66.6550429,97.7208188 Z M21.485333,94.2802292 L18.2424153,94.2802292 L18.2424153,95.6747877 L20.2210854,95.6747877 C20.5082552,95.2710104 20.8269436,94.8909847 21.1841549,94.5516761 L21.1946611,94.5516761 C21.2857149,94.4566697 21.390777,94.3684494 21.485333,94.2802292 L21.485333,94.2802292 Z M29.3369758,97.7140327 C28.7206113,97.1202425 27.8591019,96.747003 26.9030366,96.747003 C25.9434692,96.747003 25.0749556,97.1202425 24.455089,97.7208188 L24.4585911,97.7242119 C23.8387246,98.3281813 23.4499947,99.1628806 23.4499947,100.092586 C23.4499947,101.018899 23.8317204,101.853598 24.451587,102.454174 L24.4585911,102.454174 C25.0819597,103.058144 25.9434692,103.431383 26.9030366,103.431383 C27.8520978,103.431383 28.7136072,103.058144 29.3369758,102.454174 C29.9673486,101.850205 30.3490743,101.015506 30.3490743,100.092586 C30.3490743,99.1628806 29.9673486,98.3281813 29.3369758,97.7242119 L29.3369758,97.7140327 L29.3369758,97.7140327 Z M20.5117573,91.2875269 L71.7540581,91.2875269 L71.7540581,64.1971245 L20.5117573,64.1971245 L20.5117573,91.2875269 Z" id="Imported-Layers" fill="#206BB5" sketch:type="MSShapeGroup"></path>
        <path d="M85.9804196,89.5061565 L85.9804196,61.2078153 L143.400373,61.2078153 L143.400373,89.5061565 L147.319191,89.5061565 L147.319191,86.3200483 L150.408017,86.3200483 L150.408017,95.725684 L147.319191,95.725684 L147.319191,92.4988588 L145.231956,92.4988588 L145.231956,98.66749 L140.721289,98.66749 C140.808841,99.1255566 140.850866,99.6039818 140.850866,100.092586 C140.850866,102.243803 139.947332,104.205007 138.483466,105.619924 L138.483466,105.62671 C137.026604,107.04502 135.002408,107.920437 132.771588,107.920437 C130.547773,107.920437 128.530581,107.04502 127.059711,105.62671 L127.059711,105.619924 L127.052707,105.619924 C125.588841,104.201614 124.688809,102.24041 124.688809,100.092586 C124.688809,99.6039818 124.727332,99.1255566 124.818385,98.66749 L103.406724,98.66749 C103.497778,99.1255566 103.539803,99.6039818 103.539803,100.092586 C103.539803,102.250589 102.636269,104.2084 101.172403,105.62671 C99.7120395,107.04502 97.6878425,107.920437 95.4605254,107.920437 C93.2227022,107.920437 91.2055093,107.04502 89.7416437,105.62671 L89.7486479,105.619924 C88.2847822,104.201614 87.3742438,102.24041 87.3742438,100.092586 C87.3742438,99.6039818 87.4197707,99.1255566 87.5038204,98.66749 L83.7145798,98.66749 L83.7145798,92.4988588 L81.5958269,92.4988588 L81.5958269,95.725684 L78.5070004,95.725684 L78.5070004,86.3200483 L81.5958269,86.3200483 L81.5958269,89.5061565 L85.9804196,89.5061565 L85.9804196,89.5061565 Z M90.3790206,58.0522449 L94.9071982,54.4996834 L95.2574053,54.2248433 L95.6811559,54.3911046 L98.8050031,55.6363673 L102.758841,50.6519233 L103.210608,50.0852779 L103.816467,50.5026275 L107.504147,53.0711939 L112.116374,48.8976976 L112.533121,48.5176719 L113.023411,48.7925119 L117.33446,51.2219618 L120.433793,50.0004507 L121.078174,49.7459692 L123.526121,54.2791327 L126.723512,52.6470581 L127.224308,52.3823974 L127.627046,52.7726023 L130.299126,55.3615273 L134.466591,53.85839 L135.096963,53.6344463 L135.41215,54.2044848 L137.786554,58.48656 L136.431252,59.1923219 L134.375537,55.4836784 L130.369168,56.9291333 L129.903392,57.0987876 L129.556687,56.7594789 L126.937138,54.2248433 L123.561142,55.9485313 L122.878238,56.2980192 L122.517525,55.6329742 L120.363751,51.6427045 L117.562095,52.7454576 L117.211888,52.8811811 L116.889697,52.6945613 L112.743245,50.3601179 L108.095997,54.5811174 L107.633724,54.995074 L107.122421,54.6387999 L103.522293,52.1380952 L99.6630105,56.996995 L99.3022972,57.4448824 L98.7629783,57.231118 L95.5200606,55.938352 L91.3490942,59.2092874 L90.3790206,58.0522449 L90.3790206,58.0522449 Z M128.246913,85.4717767 L131.335739,85.4717767 L131.335739,70.1214535 L128.246913,70.1214535 L128.246913,85.4717767 Z M112.508606,85.4717767 L115.597433,85.4717767 L115.597433,70.1214535 L112.508606,70.1214535 L112.508606,85.4717767 Z M97.957502,85.4717767 L101.042826,85.4717767 L101.042826,70.1214535 L97.957502,70.1214535 L97.957502,85.4717767 Z M139.443033,95.6747877 L142.14313,95.6747877 L142.14313,94.2802292 L138.196296,94.2802292 C138.290852,94.3684494 138.38891,94.4566697 138.483466,94.5516761 L138.483466,94.5618553 C138.837175,94.901164 139.159366,95.2744035 139.443033,95.6747877 L139.443033,95.6747877 Z M127.360889,94.2802292 L100.871225,94.2802292 C100.972785,94.3684494 101.067341,94.4600627 101.168901,94.5584622 L101.172403,94.5516761 C101.529614,94.8909847 101.851805,95.2710104 102.135472,95.6747877 L126.089637,95.6747877 C126.376807,95.2710104 126.698998,94.8909847 127.052707,94.5516761 L127.059711,94.5584622 C127.157769,94.4600627 127.259329,94.3684494 127.360889,94.2802292 L127.360889,94.2802292 Z M135.212532,97.7208188 L135.20903,97.7242119 C134.585661,97.1202425 133.724152,96.747003 132.771588,96.747003 C131.815523,96.747003 130.947009,97.1202425 130.330645,97.7140327 L130.330645,97.7242119 C129.707276,98.3281813 129.318547,99.1628806 129.318547,100.092586 C129.318547,101.018899 129.700272,101.853598 130.323641,102.454174 L130.330645,102.464354 C130.947009,103.061537 131.815523,103.431383 132.771588,103.431383 C133.724152,103.431383 134.585661,103.058144 135.20903,102.454174 L135.212532,102.457568 C135.8359,101.853598 136.221128,101.015506 136.221128,100.092586 C136.221128,99.1628806 135.8359,98.3247882 135.212532,97.7208188 L135.212532,97.7208188 Z M90.0428218,94.2802292 L86.7999042,94.2802292 L86.7999042,95.6747877 L88.7785742,95.6747877 C89.065744,95.2710104 89.3844325,94.8909847 89.7416437,94.5516761 L89.7521499,94.5516761 C89.8432038,94.4566697 89.9482659,94.3684494 90.0428218,94.2802292 L90.0428218,94.2802292 Z M97.8944647,97.7140327 C97.2781002,97.1202425 96.4165908,96.747003 95.4605254,96.747003 C94.500958,96.747003 93.6324444,97.1202425 93.0125779,97.7208188 L93.01608,97.7242119 C92.3962134,98.3281813 92.0074836,99.1628806 92.0074836,100.092586 C92.0074836,101.018899 92.3892093,101.853598 93.0090758,102.454174 L93.01608,102.454174 C93.6394486,103.058144 94.500958,103.431383 95.4605254,103.431383 C96.4095866,103.431383 97.2710961,103.058144 97.8944647,102.454174 C98.5248374,101.850205 98.9065632,101.015506 98.9065632,100.092586 C98.9065632,99.1628806 98.5248374,98.3281813 97.8944647,97.7242119 L97.8944647,97.7140327 L97.8944647,97.7140327 Z M89.0692461,91.2875269 L140.311547,91.2875269 L140.311547,64.1971245 L89.0692461,64.1971245 L89.0692461,91.2875269 Z" id="Imported-Layers" fill="#206BB5" sketch:type="MSShapeGroup"></path>
    </g>
</svg>