<?xml version="1.0" encoding="UTF-8" standalone="no"?>
<svg width="160px" height="160px" viewBox="0 0 160 160" version="1.1" xmlns="http://www.w3.org/2000/svg" xmlns:xlink="http://www.w3.org/1999/xlink" xmlns:sketch="http://www.bohemiancoding.com/sketch/ns">
    <!-- Generator: Sketch 3.2.2 (9983) - http://www.bohemiancoding.com/sketch -->
    <title>cdl-brakes</title>
    <desc>Created with Sketch.</desc>
    <defs></defs>
    <g id="Page-1" stroke="none" stroke-width="1" fill="none" fill-rule="evenodd" sketch:type="MSPage">
        <path d="M123.849615,51.2564444 L100.009654,67.9844444 L114.3875,86.5975556 L124.942423,82 L125.776308,86.9375556 L113.827769,93.1935556 L109.5365,87.6326667 L109.521269,87.6591111 C109.334692,88.0822222 109.094808,88.8113333 108.790192,89.7482222 C108.135269,91.7693333 107.183346,94.6933333 105.496538,98.1613333 C103.124346,103.046 98.9701538,105.539333 98.0981923,106.026667 L93.1215385,109.944222 L92.1391538,110.711111 L91.1986538,109.883778 L78.5380769,98.6184444 L77.5747308,97.7684444 L78.2943846,96.6917778 L80.3886154,93.5788889 L77.8679231,91.18 L70.4962308,90.9382222 L69.8717692,90.9231111 L54.9189615,75.1546667 L54.1345769,74.3273333 L54.74,73.3602222 L57.7671154,68.5057778 L58.9931923,67.4895556 C60.8285,66.088 64.8075385,63.4888889 69.1140385,63.4171111 C73.3900769,63.3491111 77.9516923,66.8095556 81.074,69.1857778 C82.2277308,70.0546667 83.1606154,70.7724444 83.5946923,70.95 C86.7626923,72.2608889 89.3747692,72.7708889 91.8040769,72.5857778 C93.4946923,72.4611111 95.1281923,71.9813333 96.8378462,71.1993333 L95.2043462,69.0837778 L93.9668462,67.4744444 L95.4556538,66.0993333 L120.795846,48 L121.306077,48.5477778 L123.343192,50.7162222 L123.849615,51.2564444 L123.849615,51.2564444 Z M33.3026923,69.2575556 L29,70.5344444 C29.0152308,70.5797778 34.0566154,87.1868889 39.1665385,92.2642222 C42.9209231,95.9928889 48.4496923,94.9426667 52.0022692,93.6657778 L56.5791154,103.714667 L62.0355385,101.281778 L50.6886154,76.3257778 L45.2283846,78.77 L50.1745769,89.6311111 C47.7186154,90.5037778 44.3716538,91.1157778 42.3421538,89.106 C38.0242308,84.822 33.3179231,69.3028889 33.3026923,69.2575556 L33.3026923,69.2575556 Z M94.9644615,104.704444 L83.9297692,94.5308889 L83.5642308,94.1908889 L81.4890385,97.266 L92.2533846,106.846444 L94.9644615,104.704444 L94.9644615,104.704444 Z M59.2368846,71.766 L57.8775385,73.9533333 L71.2044615,87.9991111 L77.0568846,88.1917778 L75.3853077,86.6504444 L59.2368846,71.766 Z M98.696,73.5982222 C96.4532692,74.7051111 94.3057308,75.37 92.0287308,75.5437778 C89.1196538,75.7742222 86.0773077,75.1924444 82.4485769,73.6926667 C81.6527692,73.3602222 80.5828077,72.548 79.2577308,71.5393333 C76.4705,69.42 72.3962692,66.3297778 69.1673462,66.3751111 C65.9460385,66.4317778 62.8694231,68.3055556 61.2016538,69.5333333 L97.4546923,102.947778 C98.7607308,102.086444 101.228115,100.122 102.808308,96.8768889 C104.411346,93.5788889 105.321385,90.7833333 105.949654,88.8415556 C106.2695,87.8442222 106.520808,87.0697778 106.794962,86.4653333 C107.034846,85.9288889 107.328038,85.4982222 107.617423,85.1506667 L98.696,73.5982222 Z" id="Imported-Layers" fill="#206BB5" sketch:type="MSShapeGroup"></path>
    </g>
</svg>