<?xml version="1.0" encoding="UTF-8" standalone="no"?>
<svg width="160px" height="160px" viewBox="0 0 160 160" version="1.1" xmlns="http://www.w3.org/2000/svg" xmlns:xlink="http://www.w3.org/1999/xlink" xmlns:sketch="http://www.bohemiancoding.com/sketch/ns">
    <!-- Generator: Sketch 3.2.2 (9983) - http://www.bohemiancoding.com/sketch -->
    <title>cdl-tanker</title>
    <desc>Created with Sketch.</desc>
    <defs></defs>
    <g id="Page-1" stroke="none" stroke-width="1" fill="none" fill-rule="evenodd" sketch:type="MSPage">
        <path d="M115.356522,48 L115.9,49.0279412 C120.408696,57.6397059 122.252174,65.7132353 122.03913,73.3676471 C121.852174,80.2367647 120.013043,86.7176471 116.969565,92.9338235 L124.352174,92.9338235 L124.352174,89.6161765 L128.186957,89.6161765 L128.186957,102.017647 L124.352174,102.017647 L124.352174,96.8205882 L120.969565,96.8205882 L120.969565,106.385294 L116.065217,106.385294 C116.086957,106.645588 116.095652,106.905882 116.095652,107.166176 C116.095652,109.892647 115.008696,112.354412 113.247826,114.141176 C111.491304,115.932353 109.056522,117.030882 106.373913,117.030882 C103.682609,117.030882 101.252174,115.932353 99.4956522,114.141176 C97.726087,112.354412 96.6391304,109.892647 96.6391304,107.166176 C96.6391304,106.905882 96.6565217,106.645588 96.673913,106.385294 L61.2913043,106.385294 C61.3173913,106.645588 61.326087,106.905882 61.326087,107.166176 C61.326087,109.892647 60.2391304,112.354412 58.4695652,114.141176 C56.7130435,115.932353 54.2826087,117.030882 51.5956522,117.030882 C48.9086957,117.030882 46.4782609,115.932353 44.7173913,114.141176 C42.9565217,112.354412 41.8695652,109.892647 41.8695652,107.166176 C41.8695652,106.905882 41.8782609,106.645588 41.9,106.385294 L37.3956522,106.385294 L37.3956522,96.8205882 L34.8347826,96.8205882 L34.8347826,102.017647 L31,102.017647 L31,89.6161765 L34.8347826,89.6161765 L34.8347826,92.9338235 L41.8173913,92.9338235 C38.7782609,86.7176471 36.9347826,80.2367647 36.7478261,73.3676471 C36.5434783,65.7132353 38.3782609,57.6397059 42.8956522,49.0279412 L43.4391304,48 L44.5869565,48 L115.356522,48 Z M114.943478,102.494118 L117.13913,102.494118 L117.13913,97.7382353 L109.269565,97.7382353 C110.791304,98.2235294 112.152174,99.0705882 113.247826,100.182353 C113.921739,100.861765 114.491304,101.642647 114.943478,102.494118 L114.943478,102.494118 Z M103.465217,97.7382353 L54.5,97.7382353 C56.0173913,98.2235294 57.373913,99.0705882 58.4695652,100.182353 C59.1434783,100.861765 59.7130435,101.642647 60.1695652,102.494118 L97.7956522,102.494118 C98.2521739,101.642647 98.826087,100.861765 99.4956522,100.182353 C100.591304,99.0705882 101.947826,98.2235294 103.465217,97.7382353 L103.465217,97.7382353 Z M109.178261,104.311765 C108.46087,103.588235 107.469565,103.129412 106.373913,103.129412 C105.269565,103.129412 104.273913,103.588235 103.56087,104.311765 C102.83913,105.039706 102.395652,106.045588 102.395652,107.166176 C102.395652,108.277941 102.83913,109.288235 103.56087,110.020588 C104.273913,110.748529 105.269565,111.198529 106.373913,111.198529 C107.469565,111.198529 108.46087,110.748529 109.178261,110.020588 C109.904348,109.288235 110.347826,108.277941 110.347826,107.166176 C110.347826,106.045588 109.904348,105.039706 109.178261,104.311765 L109.178261,104.311765 Z M48.6869565,97.7382353 L41.2304348,97.7382353 L41.2304348,102.494118 L43.026087,102.494118 C43.473913,101.642647 44.0478261,100.861765 44.7173913,100.182353 C45.8173913,99.0705882 47.1782609,98.2235294 48.6869565,97.7382353 L48.6869565,97.7382353 Z M54.4130435,104.311765 C53.6913043,103.588235 52.6956522,103.129412 51.5956522,103.129412 C50.4956522,103.129412 49.5043478,103.588235 48.7869565,104.311765 C48.0652174,105.039706 47.6173913,106.045588 47.6173913,107.166176 C47.6173913,108.277941 48.0652174,109.288235 48.7869565,110.020588 C49.5043478,110.748529 50.4956522,111.198529 51.5956522,111.198529 C52.6956522,111.198529 53.6913043,110.748529 54.4130435,110.020588 C55.126087,109.288235 55.573913,108.277941 55.573913,107.166176 C55.573913,106.045588 55.126087,105.039706 54.4130435,104.311765 L54.4130435,104.311765 Z M100.465217,81.3882353 L92.4565217,81.3882353 L92.4565217,84.0529412 L88.6173913,84.0529412 L88.6173913,51.8911765 L45.7521739,51.8911765 C41.9478261,59.4838235 40.3826087,66.5779412 40.5695652,73.2617647 C40.7521739,79.875 42.6347826,86.1485294 45.7304348,92.1794118 L113.065217,92.1794118 C116.156522,86.1485294 118.03913,79.875 118.217391,73.2617647 C118.404348,66.5779412 116.843478,59.4838235 113.03913,51.8911765 L104.291304,51.8911765 L104.291304,84.0529412 L100.465217,84.0529412 L100.465217,81.3882353 L100.465217,81.3882353 Z M92.4565217,77.5014706 L100.465217,77.5014706 L100.465217,73.4955882 L92.4565217,73.4955882 L92.4565217,77.5014706 Z M92.4565217,69.6044118 L100.465217,69.6044118 L100.465217,66.6352941 L92.4565217,66.6352941 L92.4565217,69.6044118 Z M92.4565217,62.7485294 L100.465217,62.7485294 L100.465217,59.5897059 L92.4565217,59.5897059 L92.4565217,62.7485294 Z M92.4565217,55.6985294 L100.465217,55.6985294 L100.465217,51.8911765 L92.4565217,51.8911765 L92.4565217,55.6985294 Z" id="Imported-Layers" fill="#206BB5" sketch:type="MSShapeGroup"></path>
    </g>
</svg>