<?xml version="1.0" encoding="UTF-8" standalone="no"?>
<svg width="160px" height="160px" viewBox="0 0 160 160" version="1.1" xmlns="http://www.w3.org/2000/svg" xmlns:xlink="http://www.w3.org/1999/xlink" xmlns:sketch="http://www.bohemiancoding.com/sketch/ns">
    <!-- Generator: Sketch 3.2.2 (9983) - http://www.bohemiancoding.com/sketch -->
    <title>cdl-general</title>
    <desc>Created with Sketch.</desc>
    <defs></defs>
    <g id="Page-1" stroke="none" stroke-width="1" fill="none" fill-rule="evenodd" sketch:type="MSPage">
        <path d="M69.3948732,67.9424934 C69.6659446,67.1794499 70.1963018,66.4398847 71.2295161,66.0524934 C71.3945161,65.9859717 71.5555875,65.9546673 71.7048732,65.9429282 L71.7088018,65.9429282 C72.1723732,65.9194499 72.5573732,66.103363 72.8677303,66.4281456 C73.0405875,66.6120586 73.1859446,66.8311891 73.3155875,67.0894499 C73.7438018,66.6551021 74.1955875,66.2911891 74.6473732,66.0407543 C75.3780875,65.6298847 76.1245161,65.4851021 76.8002303,65.7629282 C76.9888018,65.833363 77.1695161,65.9429282 77.3423732,66.0798847 C77.6448732,66.3303195 77.9159446,66.6355369 78.1477303,66.9759717 C78.6702303,66.5298847 79.2163018,66.1268412 79.7348732,65.8411891 C80.6305875,65.3442325 81.4673732,65.1720586 82.0527303,65.6181456 C82.0959446,65.6494499 82.1430875,65.6924934 82.1823732,65.7394499 C82.3041589,65.8646673 82.4220161,66.0094499 82.5241589,66.1698847 C82.9680875,65.9037977 83.4316589,65.6924934 83.8677303,65.5594499 C84.7438018,65.3051021 85.5570161,65.3559717 86.1070161,65.8764064 C86.1541589,65.9194499 86.2013018,65.9624934 86.2366589,66.0094499 C86.4409446,66.2520586 86.6334446,66.6159717 86.7905875,67.0424934 C87.7255875,66.5494499 88.5270161,66.2520586 88.5270161,66.2520586 L88.8727303,67.2264064 C88.8648732,67.2264064 88.2284446,67.457276 87.4505875,67.8603195 L89.8077303,68.3024934 L85.4273732,91.1194499 L89.9295161,91.1194499 C90.4716589,84.7137977 92.9623732,80.5111891 95.4766589,76.273363 C97.2602303,73.2642325 99.0595161,70.2355369 100.029873,66.4007543 C100.882373,63.0394499 101.212373,59.5411891 100.768445,56.2737977 C100.383445,53.4485804 99.4170161,50.7955369 97.7041589,48.5455369 C97.5234446,48.3068412 97.2955875,48.0368412 97.0363018,47.7590151 C93.4730875,43.8616238 86.9791589,41.7877108 80.2730875,41.4824934 C73.5198732,41.173363 66.6448732,42.6524934 62.3823732,45.8846673 L62.3823732,45.8885804 C62.0680875,46.127276 61.7655875,46.3816238 61.4709446,46.6477108 C59.0155875,48.8742325 57.5738018,51.7229282 56.9098732,54.8181456 C56.1202303,58.4885804 56.4148732,62.5385804 57.3930875,66.4007543 C58.3634446,70.2355369 60.1627303,73.2642325 61.9463018,76.273363 C64.4566589,80.5111891 66.9473732,84.7137977 67.4934446,91.1194499 L71.8895161,91.1194499 L67.5052303,68.3024934 L69.3948732,67.9424934 L69.3948732,67.9424934 Z M75.4095161,91.1194499 L71.9091589,72.9042325 C71.9916589,72.9277108 72.0741589,72.947276 72.1527303,72.9590151 C72.4984446,73.0020586 72.8638018,72.947276 73.1820161,72.763363 C73.7320161,72.4620586 74.1523732,71.8281456 74.0895161,70.8498847 C74.0463018,70.1064064 73.9402303,69.0851021 73.7084446,68.1851021 C74.1720161,67.6529282 74.6709446,67.2146673 75.1541589,66.9368412 C75.6177303,66.6785804 76.0616589,66.5768412 76.4152303,66.7177108 C76.5095161,66.7529282 76.5959446,66.8077108 76.6823732,66.8781456 C76.9455875,67.097276 77.1773732,67.3711891 77.3777303,67.6842325 C76.9377303,68.1107543 76.5488018,68.5490151 76.2423732,68.9403195 C75.5666589,69.8285804 75.5391589,70.6268412 75.8338018,71.2098847 L75.8377303,71.2098847 C76.0813018,71.7029282 76.5488018,72.0316238 77.0555875,72.1490151 C77.5702303,72.2664064 78.1359446,72.1607543 78.5680875,71.8046673 C79.0827303,71.3664064 79.3930875,70.5681456 79.1338018,69.3237977 C79.0355875,68.8581456 78.8784446,68.3690151 78.6663018,67.8955369 C79.1848732,67.4337977 79.7309446,67.0190151 80.2416589,66.7411891 C80.7798732,66.4398847 81.2277303,66.2911891 81.4202303,66.4398847 L81.4438018,66.4555369 C81.5223732,66.5416238 81.6009446,66.643363 81.6716589,66.7646673 L81.5420161,66.8664064 C81.3180875,67.0542325 81.0980875,67.2616238 80.8859446,67.4807543 C80.3045161,68.0951021 79.9863018,68.8229282 79.8998732,69.4842325 C79.8409446,69.9303195 79.8841589,70.3568412 80.0138018,70.7090151 C80.1591589,71.1081456 80.4184446,71.4290151 80.7680875,71.6246673 C81.0548732,71.7811891 81.3966589,71.8437977 81.7855875,71.7890151 C82.0841589,71.7498847 82.3355875,71.6129282 82.5438018,71.4055369 C82.8895161,71.0729282 83.1016589,70.5446673 83.1998732,69.9342325 C83.2823732,69.3824934 83.2823732,68.7485804 83.1920161,68.1381456 C83.1370161,67.7898847 83.0584446,67.4416238 82.9523732,67.1168412 C83.3609446,66.8664064 83.7773732,66.6668412 84.1663018,66.553363 C84.6927303,66.3929282 85.1523732,66.3929282 85.3998732,66.6198847 C85.4116589,66.6355369 85.4273732,66.6551021 85.4430875,66.6707543 C85.6041589,66.8664064 85.7573732,67.187276 85.8870161,67.5746673 C85.3330875,67.9268412 84.7988018,68.3455369 84.4138018,68.7955369 C84.0523732,69.2220586 83.8677303,69.6446673 83.8166589,70.0320586 C83.7655875,70.4311891 83.8598732,70.7911891 84.0484446,71.0924934 C84.2330875,71.3820586 84.5041589,71.6129282 84.8223732,71.7577108 C85.0580875,71.867276 85.3134446,71.9377108 85.5845161,71.9611891 L81.9034446,91.1194499 L75.4095161,91.1194499 L75.4095161,91.1194499 Z M93.3984446,91.1194499 L95.7045161,91.1194499 L95.7045161,96.6485804 L96.0816589,96.5937977 L96.6120161,99.9864064 L95.7045161,100.127276 L95.7045161,105.910754 L96.0816589,105.848146 L96.6120161,109.244667 L95.7045161,109.38945 L95.7045161,116.112059 L93.9759446,116.734233 L79.2713018,121.997276 L78.3559446,122.322059 L77.4759446,121.985537 L63.6866589,116.722493 L62.0170161,116.084667 L62.0170161,114.629015 L61.2430875,114.746406 L60.7127303,111.349885 L62.0170161,111.150319 L62.0170161,105.370754 L61.2430875,105.488146 L60.7127303,102.091624 L62.0170161,101.892059 L62.0170161,91.1194499 L64.0284446,91.1194499 C63.4784446,85.6294499 61.2313018,81.8455369 58.9723732,78.0264064 C57.0552303,74.8020586 55.1302303,71.5542325 54.0380875,67.2381456 C52.9380875,62.9024934 52.6238018,58.3242325 53.5273732,54.1059717 C54.3327303,50.3337977 56.1084446,46.8590151 59.1413018,44.1003195 C59.5027303,43.7755369 59.8838018,43.4546673 60.2884446,43.1494499 L60.2923732,43.1494499 C65.2109446,39.4281456 72.9345161,37.6985804 80.4223732,38.0429282 C87.9691589,38.3911891 95.3784446,40.8329282 99.5938018,45.4346673 C99.8766589,45.7398847 100.163445,46.0842325 100.454159,46.4677108 C102.555945,49.2224934 103.730587,52.4311891 104.194159,55.8159717 C104.700945,59.5529282 104.335587,63.4855369 103.384873,67.2381456 C102.29273,71.5581456 100.36773,74.8020586 98.4545161,78.0303195 C96.1916589,81.8455369 93.9445161,85.6294499 93.3984446,91.1194499 L93.3984446,91.1194499 Z M90.5030875,96.2964064 L67.2145161,96.2964064 L67.2145161,101.082059 L90.5030875,97.4585804 L90.5030875,96.2964064 L90.5030875,96.2964064 Z M67.2145161,104.560754 L67.2145161,110.340319 L90.5030875,106.716841 L90.5030875,100.937276 L67.2145161,104.560754 L67.2145161,104.560754 Z M69.6148732,113.443363 L78.4384446,116.816406 L90.5030875,112.496406 L90.5030875,110.19945 L69.6148732,113.443363 L69.6148732,113.443363 Z M71.3316589,69.8990151 L70.9034446,67.6607543 L70.6755875,67.6998847 C70.8916589,67.4142325 71.1823732,67.1677108 71.5909446,67.0190151 C71.6538018,66.9916238 71.7166589,66.9798847 71.7716589,66.9759717 C71.8973732,66.9681456 72.0113018,67.0307543 72.1173732,67.1403195 C72.2745161,67.3046673 72.4120161,67.5629282 72.5259446,67.8642325 L72.5573732,67.9503195 C72.0859446,68.5568412 71.6655875,69.2259717 71.3316589,69.8990151 L71.3316589,69.8990151 Z M85.7809446,70.9398847 C85.5923732,70.9398847 85.4155875,70.8968412 85.2663018,70.8303195 C85.1209446,70.7598847 84.9991589,70.6581456 84.9245161,70.5446673 C84.8577303,70.4351021 84.8263018,70.3059717 84.8459446,70.157276 C84.8695161,69.9616238 84.9795161,69.7268412 85.2034446,69.4685804 C85.4588018,69.167276 85.7888018,68.8855369 86.1502303,68.627276 L86.1698732,68.7407543 L86.1855875,68.8346673 L85.7809446,70.9398847 L85.7809446,70.9398847 Z M73.0563018,70.9085804 C73.0877303,71.4290151 72.9109446,71.7381456 72.6791589,71.8594499 C72.5573732,71.9298847 72.4238018,71.953363 72.2941589,71.9377108 C72.1763018,71.9181456 72.0702303,71.8711891 71.9955875,71.7890151 C71.8620161,71.6481456 71.8266589,71.3781456 71.9877303,70.9790151 C72.2116589,70.4116238 72.5180875,69.8324934 72.8795161,69.2768412 C72.9738018,69.8637977 73.0248732,70.4468412 73.0563018,70.9085804 L73.0563018,70.9085804 Z M78.1202303,69.5390151 C78.2891589,70.3411891 78.1477303,70.8029282 77.8963018,71.0142325 C77.7313018,71.1551021 77.5034446,71.1864064 77.2873732,71.1394499 C77.0634446,71.0846673 76.8630875,70.9516238 76.7609446,70.7481456 L76.7648732,70.7481456 C76.6313018,70.4898847 76.6705875,70.0829282 77.0673732,69.5703195 C77.2873732,69.2846673 77.5545161,68.9755369 77.8648732,68.6585804 C77.9709446,68.9520586 78.0573732,69.2494499 78.1202303,69.5390151 L78.1202303,69.5390151 Z M82.1627303,68.2868412 L82.1627303,68.2868412 C82.2373732,68.807276 82.2452303,69.3316238 82.1745161,69.7816238 C82.1155875,70.1768412 81.9977303,70.5016238 81.8209446,70.6737977 C81.7698732,70.7207543 81.7070161,70.7559717 81.6363018,70.7677108 C81.4870161,70.7911891 81.3613018,70.7677108 81.2670161,70.7129282 C81.1452303,70.6503195 81.0509446,70.5251021 80.9880875,70.3568412 C80.9134446,70.153363 80.8898732,69.8951021 80.9252303,69.6211891 C80.9841589,69.1555369 81.2120161,68.6390151 81.6363018,68.1968412 C81.7698732,68.0598847 81.9113018,67.9190151 82.0684446,67.7820586 C82.1077303,67.9424934 82.1352303,68.1146673 82.1627303,68.2868412 L82.1627303,68.2868412 Z" id="Imported-Layers" fill="#206BB5" sketch:type="MSShapeGroup"></path>
    </g>
</svg>