<?xml version="1.0" encoding="utf-8"?>
<!-- Generator: Adobe Illustrator 18.1.1, SVG Export Plug-In . SVG Version: 6.00 Build 0)  -->
<svg version="1.1" id="Layer_1" xmlns="http://www.w3.org/2000/svg" xmlns:xlink="http://www.w3.org/1999/xlink" x="0px" y="0px"
	 width="211px" height="66px" viewBox="-200 364 211 66" enable-background="new -200 364 211 66" xml:space="preserve">
<g>
	<rect x="-123.2" y="402.2" fill="#FFFFFF" width="130" height="5.2"/>
	<path fill="#FFFFFF" d="M-92.9,409.9c-4.6,0-8.3,3.7-8.3,8.3c0,4.6,3.7,8.3,8.3,8.3c4.6,0,8.3-3.7,8.3-8.3
		C-84.7,413.6-88.3,409.9-92.9,409.9z M-92.9,423.4c-2.9,0-5.2-2.3-5.2-5.2c0-2.9,2.3-5.2,5.2-5.2c2.9,0,5.2,2.3,5.2,5.2
		C-87.8,421-90.1,423.4-92.9,423.4z"/>
	<path fill="#FFFFFF" d="M-111.3,409.9c-4.6,0-8.3,3.7-8.3,8.3c0,4.6,3.7,8.3,8.3,8.3c4.6,0,8.3-3.7,8.3-8.3
		C-103.2,413.6-106.8,409.9-111.3,409.9z M-111.3,423.4c-2.9,0-5.2-2.3-5.2-5.2c0-2.9,2.3-5.2,5.2-5.2c2.9,0,5.2,2.3,5.2,5.2
		C-106.2,421-108.6,423.4-111.3,423.4z"/>
	<path fill="#FFFFFF" d="M-180.4,409.9c-4.6,0-8.3,3.7-8.3,8.3c0,4.6,3.7,8.3,8.3,8.3s8.3-3.7,8.3-8.3S-175.9,409.9-180.4,409.9z
		 M-180.4,423.4c-2.9,0-5.2-2.3-5.2-5.2c0-2.9,2.3-5.2,5.2-5.2s5.2,2.3,5.2,5.2C-175.2,421-177.6,423.4-180.4,423.4z"/>
	<path fill="#FFFFFF" d="M-11.9,409.9c-4.6,0-8.3,3.7-8.3,8.3c0,4.6,3.7,8.3,8.3,8.3s8.3-3.7,8.3-8.3
		C-3.7,413.6-7.4,409.9-11.9,409.9z M-11.9,423.4c-2.9,0-5.2-2.3-5.2-5.2c0-2.9,2.3-5.2,5.2-5.2s5.2,2.3,5.2,5.2
		C-6.8,421-9.1,423.4-11.9,423.4z"/>
	<path fill="#FFFFFF" d="M-30.5,409.9c-4.6,0-8.3,3.7-8.3,8.3c0,4.6,3.7,8.3,8.3,8.3s8.3-3.7,8.3-8.3
		C-22.1,413.6-25.9,409.9-30.5,409.9z M-30.5,423.4c-2.9,0-5.2-2.3-5.2-5.2c0-2.9,2.3-5.2,5.2-5.2s5.2,2.3,5.2,5.2
		C-25.2,421-27.5,423.4-30.5,423.4z"/>
	<rect x="-70.8" y="411.5" fill="#FFFFFF" width="29.7" height="7.8"/>
	<polygon fill="#FFFFFF" points="-78.3,419.2 -76.8,419.2 -76.8,421.6 -78.3,421.6 -78.3,422.9 -73.2,422.9 -73.2,421.6 
		-74.8,421.6 -74.8,419.2 -73.2,419.2 -73.2,411.6 -78.3,411.6 	"/>
	<path fill="#FFFFFF" d="M-126.6,409.9h-17.4c-2,0-3.7,1.6-3.7,3.7v4.4c0,2,1.6,3.7,3.7,3.7h17.3c2,0,3.7-1.6,3.7-3.7v-4.4
		C-122.9,411.6-124.6,409.9-126.6,409.9z"/>
	<path fill="#FFFFFF" d="M-1.3,409.9h-1.7l-0.7,0.9c0.1,0.1,2.8,2,2.5,6.3l0,0v5H1v-5c0-0.3,0-0.6,0-0.9h1.3v-3.8h-2
		C-0.1,411.4-0.8,410.5-1.3,409.9z"/>
	<path fill="#FFFFFF" d="M-128.8,371.2c0-2-1.6-3.7-3.7-3.7h-14.5l-3.6,5.9h-8l-4.5,7.3h34.3V371.2z"/>
	<path fill="#FFFFFF" d="M-128.8,403.8V383h-39.4c0,0-2.2,7.3-4.4,13.1c-7.9,0.1-21.3,0-21.3,0v16.8h-1.9v8.7h4.9v-4.2
		c0.4-5.4,4.9-9.8,10.4-9.8c5.8,0,10.5,4.7,10.5,10.5v3.5h19.7v-14.1h17.8C-130.4,407.5-128.8,405.9-128.8,403.8z M-165.8,386.2
		h12.3v9.9h-15.7C-167.8,392.6-166.6,388.7-165.8,386.2z M-153.4,419.2h-13.3v-4.8h13.3V419.2z"/>
</g>
</svg>
