<?xml version="1.0" encoding="utf-8"?>
<!-- Generator: Adobe Illustrator 18.1.1, SVG Export Plug-In . SVG Version: 6.00 Build 0)  -->
<svg version="1.1" id="Layer_1" xmlns="http://www.w3.org/2000/svg" xmlns:xlink="http://www.w3.org/1999/xlink" x="0px" y="0px"
	 width="77.7px" height="75.4px" viewBox="-266 359.6 77.7 75.4" enable-background="new -266 359.6 77.7 75.4"
	 xml:space="preserve">
<path fill="#FFFFFF" d="M-226.3,360.6c10.2,0,19.5,4.2,26.2,10.9c6.7,6.7,10.9,16,10.9,26.2c0,10.2-4.2,19.5-10.9,26.2
	c-6.7,6.7-16,10.9-26.2,10.9c-10.2,0-19.5-4.2-26.2-10.9c-6.8-6.6-10.9-15.9-10.9-26.1c0-10.2,4.2-19.5,10.9-26.2
	C-245.9,364.8-236.7,360.6-226.3,360.6L-226.3,360.6z M-217.3,389.3c0.3,0.2,0.5,0.5,0.9,0.8c2.4,2.4,3.9,5.8,3.9,9.5
	c0,1.9-0.3,3.6-1.1,5.3c6.5-4.5,17-3.6,19.1-3.4c0.1-1.2,0.2-2.5,0.2-3.7c0-1.5-0.1-3.1-0.3-4.5
	C-202.1,391.2-209.7,389.9-217.3,389.3L-217.3,389.3z M-195,404.8c-2.5-0.2-13.9-1-18.5,4.5c-4.4,5.3-3.9,15.7-3.6,19.2
	c5.2-1.5,9.8-4.4,13.5-8.1C-199.5,416.2-196.4,410.8-195,404.8L-195,404.8z M-220.4,429.2c-0.2-2.8-0.9-11.9,2.2-18.6
	c-2.2,1.5-4.8,2.4-7.7,2.4c-2.6,0-5-0.8-7.1-2.1c3,6.8,2.3,15.9,2,18.4c1.5,0.2,3.2,0.3,4.7,0.3
	C-224.4,429.8-222.4,429.7-220.4,429.2L-220.4,429.2z M-234.4,428.8c0.3-3.2,1-14-3.6-19.5c-2-2.4-5.4-3.6-8.7-4.2
	c-3.5-0.7-6.9-0.5-8.8-0.4c-0.4,0-1.4,0.1-2.2,0.2c1.3,6,4.4,11.3,8.5,15.5C-245.1,424.4-240.1,427.4-234.4,428.8L-234.4,428.8z
	 M-258.2,401.6c1-0.1,2-0.2,2.6-0.3c2.1-0.1,5.8-0.2,9.5,0.4c2.6,0.4,5.3,1.3,7.6,2.7c-0.5-1.5-0.9-3.2-0.9-4.9
	c0-3.7,1.5-7.1,3.9-9.5c0.2-0.2,0.5-0.5,0.8-0.8c-7.8,0.5-15.6,1.9-23.5,3.9c-0.2,1.4-0.3,2.8-0.3,4.4
	C-258.5,399.1-258.4,400.4-258.2,401.6L-258.2,401.6z M-257.5,389.8c10.4-2.6,20.6-3.9,30.8-3.9c10.6-0.1,21,1.2,31.3,3.8
	c-1.4-5.6-4.4-10.6-8.3-14.6c-5.8-5.8-13.8-9.4-22.7-9.4s-16.9,3.6-22.7,9.4C-253.1,379-256.1,384.1-257.5,389.8L-257.5,389.8z
	 M-220,393.6c-1.5-1.5-3.6-2.5-6-2.5c-2.3,0-4.5,1-6,2.5c-1.5,1.5-2.5,3.6-2.5,6c0,2.3,1,4.5,2.5,6c1.5,1.5,3.6,2.5,6,2.5
	c2.3,0,4.5-1,6-2.5c1.5-1.5,2.5-3.6,2.5-6C-217.5,397.3-218.5,395.1-220,393.6z"/>
</svg>
