<?xml version="1.0" encoding="utf-8"?>
<!-- Generator: Adobe Illustrator 18.1.1, SVG Export Plug-In . SVG Version: 6.00 Build 0)  -->
<svg version="1.1" id="Layer_1" xmlns="http://www.w3.org/2000/svg" xmlns:xlink="http://www.w3.org/1999/xlink" x="0px" y="0px"
	 width="77.7px" height="75.4px" viewBox="-266 359.6 77.7 75.4" enable-background="new -266 359.6 77.7 75.4"
	 xml:space="preserve">
<path fill-rule="evenodd" clip-rule="evenodd" fill="#FFFFFF" d="M-226.6,373.6v4.3h29.9h1l0.5,0.9l4.9,8.4l0.5,0.8l-0.5,0.9
	l-4.9,9.1l-0.5,0.9h-1h-4.2l1.8,2.5l0.7,1l-0.6,1l-3.7,5.7l-0.5,0.8h-0.9h-22.3V434h-5.2v-32.6H-252h-0.8l-0.5-0.6l-3.5-4l-1-1.2
	l1.1-1.1l0.7-0.8h-3.1h-0.9l-0.5-0.7l-4.6-6.5l-0.8-1l0.8-1l4.6-5.9l0.5-0.7h0.8h27.3v-4.2h-3.7v-11.2h12.4v11.2H-226.6
	L-226.6,373.6z M-205.2,398.8h-21.1v7.5h21.1l2.5-3.9L-205.2,398.8L-205.2,398.8z M-197.8,381.3h-28.6v14h22.9h5.6l3.9-7.3
	L-197.8,381.3L-197.8,381.3z M-231.9,397.9v-4.3h-19.4l-1.9,2l2,2.3H-231.9L-231.9,397.9z M-231.9,390.1v-8.9h-26.5l-3.3,4.2
	l3.3,4.7h5.5h0.7H-231.9z"/>
</svg>
