<?xml version="1.0" encoding="utf-8"?>
<!-- Generator: Adobe Illustrator 18.1.1, SVG Export Plug-In . SVG Version: 6.00 Build 0)  -->
<svg version="1.1" id="Layer_1" xmlns="http://www.w3.org/2000/svg" xmlns:xlink="http://www.w3.org/1999/xlink" x="0px" y="0px"
	 width="211px" height="66px" viewBox="-200 364 211 66" enable-background="new -200 364 211 66" xml:space="preserve">
<g>
	<rect x="-124.5" y="367.6" fill="#FFFFFF" width="130" height="39.9"/>
	<path fill="#FFFFFF" d="M-94.2,409.9c-4.6,0-8.3,3.7-8.3,8.3c0,4.6,3.7,8.3,8.3,8.3c4.6,0,8.3-3.7,8.3-8.3
		C-85.9,413.6-89.6,409.9-94.2,409.9z M-94.2,423.4c-2.9,0-5.2-2.3-5.2-5.2c0-2.9,2.3-5.2,5.2-5.2c2.9,0,5.2,2.3,5.2,5.2
		C-89,421-91.3,423.4-94.2,423.4z"/>
	<path fill="#FFFFFF" d="M-112.6,409.9c-4.6,0-8.3,3.7-8.3,8.3c0,4.6,3.7,8.3,8.3,8.3c4.6,0,8.3-3.7,8.3-8.3
		C-104.4,413.6-108.1,409.9-112.6,409.9z M-112.6,423.4c-2.9,0-5.2-2.3-5.2-5.2c0-2.9,2.3-5.2,5.2-5.2c2.9,0,5.2,2.3,5.2,5.2
		C-107.5,421-109.8,423.4-112.6,423.4z"/>
	<path fill="#FFFFFF" d="M-181.7,409.9c-4.6,0-8.3,3.7-8.3,8.3c0,4.6,3.7,8.3,8.3,8.3c4.6,0,8.3-3.7,8.3-8.3
		C-173.4,413.6-177.1,409.9-181.7,409.9z M-181.7,423.4c-2.9,0-5.2-2.3-5.2-5.2c0-2.9,2.3-5.2,5.2-5.2c2.9,0,5.2,2.3,5.2,5.2
		C-176.5,421-178.8,423.4-181.7,423.4z"/>
	<path fill="#FFFFFF" d="M-13.2,409.9c-4.6,0-8.3,3.7-8.3,8.3c0,4.6,3.7,8.3,8.3,8.3s8.3-3.7,8.3-8.3
		C-4.9,413.6-8.6,409.9-13.2,409.9z M-13.2,423.4c-2.9,0-5.2-2.3-5.2-5.2c0-2.9,2.3-5.2,5.2-5.2s5.2,2.3,5.2,5.2
		C-8,421-10.3,423.4-13.2,423.4z"/>
	<path fill="#FFFFFF" d="M-31.7,409.9c-4.6,0-8.3,3.7-8.3,8.3c0,4.6,3.7,8.3,8.3,8.3s8.3-3.7,8.3-8.3
		C-23.4,413.6-27.1,409.9-31.7,409.9z M-31.7,423.4c-2.9,0-5.2-2.3-5.2-5.2c0-2.9,2.3-5.2,5.2-5.2s5.2,2.3,5.2,5.2
		C-26.5,421-28.8,423.4-31.7,423.4z"/>
	<rect x="-72.1" y="411.5" fill="#FFFFFF" width="29.7" height="7.8"/>
	<polygon fill="#FFFFFF" points="-79.6,419.2 -78,419.2 -78,421.6 -79.6,421.6 -79.6,422.9 -74.5,422.9 -74.5,421.6 -76,421.6 
		-76,419.2 -74.5,419.2 -74.5,411.6 -79.6,411.6 	"/>
	<path fill="#FFFFFF" d="M-127.8,409.9h-17.4c-2,0-3.7,1.6-3.7,3.7v4.4c0,2,1.6,3.7,3.7,3.7h17.3c2,0,3.7-1.6,3.7-3.7v-4.4
		C-124.2,411.6-125.8,409.9-127.8,409.9z"/>
	<path fill="#FFFFFF" d="M-2.6,409.9h-1.7l-0.7,0.9c0.1,0.1,2.8,2,2.5,6.3l0,0v5h2.3v-5c0-0.3,0-0.6,0-0.9h1.3v-3.8h-2
		C-1.4,411.4-2,410.5-2.6,409.9z"/>
	<path fill="#FFFFFF" d="M-130,371.3c0-2-1.6-3.7-3.7-3.7h-14.5l-3.6,5.9h-8l-4.5,7.3h34.3V371.3z"/>
	<path fill="#FFFFFF" d="M-130,403.8V383h-39.4c0,0-2.2,7.3-4.4,13.1c-7.9,0.1-21.3,0-21.3,0v16.8h-1.9v8.7h4.9v-4.2
		c0.4-5.4,4.9-9.8,10.4-9.8c5.8,0,10.5,4.7,10.5,10.5v3.5h19.7v-14.1h17.8C-131.7,407.5-130,405.9-130,403.8z M-167,386.2h12.3v9.9
		h-15.7C-169,392.6-167.8,388.7-167,386.2z M-154.6,419.3h-13.3v-4.8h13.3C-154.6,414.5-154.6,419.3-154.6,419.3z"/>
</g>
</svg>
