<?xml version="1.0" encoding="utf-8"?>
<!-- Generator: Adobe Illustrator 18.1.1, SVG Export Plug-In . SVG Version: 6.00 Build 0)  -->
<svg version="1.1" id="Layer_1" xmlns="http://www.w3.org/2000/svg" xmlns:xlink="http://www.w3.org/1999/xlink" x="0px" y="0px"
	 width="77.7px" height="75.4px" viewBox="0 0 77.7 75.4" enable-background="new 0 0 77.7 75.4" xml:space="preserve">
<path fill-rule="evenodd" clip-rule="evenodd" fill="#FFFFFF" d="M23.5,38.8v6.5l2.4,1.2l0.9,0.4v0.9V58v0.8l-0.6,0.5l-2.8,2.1v9.2
	l6.1-2.6V35.1c-0.3-0.2-0.5-0.5-0.8-0.7H18.2v33.6l2.1,1.6v-9.2v-0.8l0.6-0.5l2.8-2.1v-8.3l-2.4-1.2l-0.9-0.4v-0.9v-7.4H23.5
	L23.5,38.8z M7.7,3.2h32.3h1.6l0.6,1.5c0.9,2.6,1.6,5.2,2.1,7.8l0.1,0c4,1.3,6.7,3.8,8.2,6.7c1.6,2.9,2,6.2,1.4,9.1l4.8-0.2l0.5,0
	l0.4,0.4l17.2,19.1l0.8,0.9l-0.9,0.8L59.5,64.7l-0.9,0.8l-0.8-0.8L41.2,46.3l-0.3-0.4l0.1-0.5l0.5-5.5c-0.2,0-0.3,0-0.5,0
	c-2.8-0.1-5.8-1-8.5-2.6v31.5v1l-0.9,0.4l-9.2,3.9l-0.8,0.4L20.9,74l-5.2-3.9l-0.6-0.5v-0.8V34.4H7.7H6.2l-0.6-1.3
	C3.4,28.5,2.1,23.8,2,19c-0.1-4.8,1-9.7,3.6-14.6l0.7-1.3H7.7L7.7,3.2z M44.5,15.1c0.1,1.2,0.2,2.5,0.2,3.7c0,3.4-0.4,6.7-1.3,10
	l0.1,0l8.1-0.4c0-0.2,0.1-0.3,0.1-0.5c0.5-2.4,0.1-5.1-1.2-7.6C49.4,18.2,47.4,16.2,44.5,15.1L44.5,15.1z M42.2,32.8l-0.1,0.2
	l-0.6,1.5h-1.6h-7.4v0.2c0.3,0.2,0.5,0.4,0.8,0.5c2.4,1.5,5.1,2.4,7.7,2.5c0.2,0,0.4,0,0.6,0L42.2,32.8L42.2,32.8z M38.3,7.8H9.1
	C7.4,11.6,6.6,15.3,6.6,19c0.1,3.6,0.9,7.2,2.5,10.8h15.9c-1-1.7-1.7-3.6-2.1-5.7h-8.1h-1.5v-1.5v-7.9v-1.5h1.5h18h1.5v1.5v7.9v1.5
	h-1.5h-7.5c0.4,1.7,1,3.3,1.8,4.7c0.2,0.3,0.4,0.7,0.6,1h10.5c1.2-3.7,1.8-7.3,1.8-11C40.1,15.2,39.5,11.5,38.3,7.8L38.3,7.8z
	 M31.3,16.2h-5.9C25,17.9,24.9,19.5,25,21h6.3V16.2L31.3,16.2z M23.1,16.2h-6.7V21h6.3C22.6,19.5,22.7,17.9,23.1,16.2L23.1,16.2z
	 M44,37.3c0.8-0.2,1.6-0.5,2.4-0.9c-0.1-0.3-0.1-0.6-0.1-0.9c0-0.9,0.4-1.7,1-2.3l0,0c0.6-0.6,1.4-0.9,2.3-0.9
	c0.9,0,1.7,0.4,2.3,0.9l0,0c0.6,0.6,1,1.4,1,2.3c0,0.9-0.4,1.7-1,2.3l0,0c-0.6,0.6-1.4,1-2.3,1c-0.6,0-1.2-0.2-1.7-0.5
	c-1.3,0.7-2.6,1.2-4.1,1.4l-0.5,5.4l15.5,17.1l15.6-14L58.3,30.4l-13.7,0.7L44,37.3L44,37.3z M46.6,36.3c0.7-0.4,1.4-1,2.1-1.6
	l1.7,1.6c-0.7,0.7-1.5,1.3-2.3,1.8c0.4,0.2,0.9,0.4,1.4,0.4c0.8,0,1.6-0.3,2.1-0.9c0.5-0.6,0.9-1.3,0.9-2.1c0-0.8-0.3-1.6-0.9-2.1
	c-0.5-0.5-1.3-0.9-2.1-0.9c-0.8,0-1.6,0.3-2.1,0.9c-0.5,0.5-0.9,1.3-0.9,2.1C46.5,35.8,46.6,36,46.6,36.3z"/>
</svg>
