<?xml version="1.0" encoding="utf-8"?>
<!-- Generator: Adobe Illustrator 18.1.1, SVG Export Plug-In . SVG Version: 6.00 Build 0)  -->
<svg version="1.1" id="Layer_1" xmlns="http://www.w3.org/2000/svg" xmlns:xlink="http://www.w3.org/1999/xlink" x="0px" y="0px"
	 viewBox="0 0 612 180" enable-background="new 0 0 612 180" xml:space="preserve">
<g>
	<rect x="220.2" y="104.6" fill="#FFFFFF" width="391.8" height="15.7"/>
	<path fill="#FFFFFF" d="M311.5,127.8c-13.9,0-25,11.2-25,25c0,13.9,11.2,25,25,25s25-11.2,25-25
		C336.2,138.9,325.4,127.8,311.5,127.8z M311.5,168.5c-8.7,0-15.7-6.9-15.7-15.7c0-8.7,6.9-15.7,15.7-15.7c8.7,0,15.7,6.9,15.7,15.7
		C326.9,161.2,320,168.5,311.5,168.5z"/>
	<path fill="#FFFFFF" d="M256.1,127.8c-13.9,0-25,11.2-25,25c0,13.9,11.2,25,25,25c13.9,0,25-11.2,25-25
		C280.5,138.9,269.6,127.8,256.1,127.8z M256.1,168.5c-8.7,0-15.7-6.9-15.7-15.7c0-8.7,6.9-15.7,15.7-15.7c8.7,0,15.7,6.9,15.7,15.7
		C271.4,161.2,264.2,168.5,256.1,168.5z"/>
	<path fill="#FFFFFF" d="M47.8,127.8c-13.9,0-25,11.2-25,25c0,13.9,11.2,25,25,25s25-11.2,25-25C72.8,138.9,61.4,127.8,47.8,127.8z
		 M47.8,168.5c-8.7,0-15.7-6.9-15.7-15.7c0-8.7,6.9-15.7,15.7-15.7s15.7,6.9,15.7,15.7C63.5,161.2,56.3,168.5,47.8,168.5z"/>
	<path fill="#FFFFFF" d="M555.6,127.8c-13.9,0-25,11.2-25,25c0,13.9,11.2,25,25,25s25-11.2,25-25
		C580.4,138.9,569.2,127.8,555.6,127.8z M555.6,168.5c-8.7,0-15.7-6.9-15.7-15.7c0-8.7,6.9-15.7,15.7-15.7c8.7,0,15.7,6.9,15.7,15.7
		C571,161.2,564.1,168.5,555.6,168.5z"/>
	<path fill="#FFFFFF" d="M499.6,127.8c-13.9,0-25,11.2-25,25c0,13.9,11.2,25,25,25c13.9,0,25-11.2,25-25
		C524.9,138.9,513.4,127.8,499.6,127.8z M499.6,168.5c-8.7,0-15.7-6.9-15.7-15.7c0-8.7,6.9-15.7,15.7-15.7s15.7,6.9,15.7,15.7
		C515.6,161.2,508.6,168.5,499.6,168.5z"/>
	<rect x="378.1" y="132.6" fill="#FFFFFF" width="89.5" height="23.5"/>
	<polygon fill="#FFFFFF" points="355.5,155.8 360,155.8 360,163 355.5,163 355.5,167 370.9,167 370.9,163 366.1,163 366.1,155.8 
		370.9,155.8 370.9,132.9 355.5,132.9 	"/>
	<path fill="#FFFFFF" d="M210,127.8h-52.4c-6,0-11.2,4.8-11.2,11.2v13.3c0,6,4.8,11.2,11.2,11.2h52.1c6,0,11.2-4.8,11.2-11.2v-13.3
		C221.1,132.9,216,127.8,210,127.8z"/>
	<path fill="#FFFFFF" d="M587.6,127.8h-5.1l-2.1,2.7c0.3,0.3,8.4,6,7.5,19l0,0v15.1h6.6v-15.1c0-0.9,0-1.8,0-2.7h3.9v-11.5h-6
		C591.2,132.3,589.1,129.6,587.6,127.8z"/>
	<path fill="#FFFFFF" d="M203.3,11.2c0-6-4.8-11.2-11.2-11.2h-43.7l-10.8,17.8h-24.1l-13.6,22h103.4V11.2z"/>
	<path fill="#FFFFFF" d="M203.3,109.4V46.7H84.6c0,0-6.6,22-13.3,39.5c-23.8,0.3-64.2,0-64.2,0v50.6H1.4V163h14.8v-12.7
		c1.2-16.3,14.8-29.5,31.3-29.5c17.5,0,31.6,14.2,31.6,31.6V163h59.4v-42.5h53.6C198.5,120.6,203.3,115.7,203.3,109.4z M91.8,56.4
		h37.1v29.8H81.6C85.8,75.6,89.4,63.9,91.8,56.4z M129.2,155.8H89.1v-14.5h40.1V155.8z"/>
</g>
</svg>
