<?xml version="1.0" encoding="utf-8"?>
<!-- Generator: Adobe Illustrator 18.1.1, SVG Export Plug-In . SVG Version: 6.00 Build 0)  -->
<svg version="1.1" id="Layer_1" xmlns="http://www.w3.org/2000/svg" xmlns:xlink="http://www.w3.org/1999/xlink" x="0px" y="0px"
	 width="217.1px" height="66px" viewBox="-196 364 217.1 66" enable-background="new -196 364 217.1 66" xml:space="preserve">
<g>
	<path fill="#FFFFFF" d="M-71.9,408.8c-5.4,0-9.7,4.4-9.7,9.7c0,5.4,4.4,9.7,9.7,9.7c5.4,0,9.7-4.3,9.7-9.7
		C-62.2,413.2-66.6,408.8-71.9,408.8z M-71.9,424.6c-3.4,0-6.1-2.7-6.1-6.1s2.7-6.1,6.1-6.1s6.1,2.7,6.1,6.1S-68.5,424.6-71.9,424.6
		z"/>
	<path fill="#FFFFFF" d="M-93.7,408.8c-5.4,0-9.7,4.4-9.7,9.7c0,5.4,4.3,9.7,9.7,9.7c5.4,0,9.7-4.3,9.7-9.7
		C-84,413.2-88.3,408.8-93.7,408.8z M-93.7,424.6c-3.4,0-6.1-2.7-6.1-6.1s2.7-6.1,6.1-6.1s6.1,2.7,6.1,6.1S-90.3,424.6-93.7,424.6z"
		/>
	<path fill="#FFFFFF" d="M2.4,408.8c-5.4,0-9.7,4.4-9.7,9.7c0,5.4,4.3,9.7,9.7,9.7s9.7-4.3,9.7-9.7C12.1,413.2,7.8,408.8,2.4,408.8z
		 M2.4,424.6c-3.4,0-6.1-2.7-6.1-6.1s2.7-6.1,6.1-6.1c3.4,0,6.1,2.7,6.1,6.1S5.8,424.6,2.4,424.6z"/>
	<path fill="#FFFFFF" d="M-19.4,408.8c-5.4,0-9.7,4.4-9.7,9.7c0,5.4,4.3,9.7,9.7,9.7s9.7-4.3,9.7-9.7
		C-9.6,413.2-14,408.8-19.4,408.8z M-19.4,424.6c-3.4,0-6.1-2.7-6.1-6.1s2.7-6.1,6.1-6.1c3.4,0,6.1,2.7,6.1,6.1
		C-13.3,421.9-16,424.6-19.4,424.6z"/>
	<rect x="-47.9" y="410.6" fill="#FFFFFF" width="16" height="9.2"/>
	<polygon fill="#FFFFFF" points="-56.8,419.8 -55,419.8 -55,422.6 -56.8,422.6 -56.8,424.1 -50.7,424.1 -50.7,422.6 -52.5,422.6 
		-52.5,419.8 -50.7,419.8 -50.7,410.8 -56.8,410.8 	"/>
	<path fill="#FFFFFF" d="M16.9,411.9c-0.6-1.4-1.4-2.4-2-3.1h-2l-0.8,1.1c0.1,0.1,3.3,2.4,2.9,7.4l0,0v5.9h2.7v-5.8c0-0.3,0-0.7,0-1
		h1.5v-4.5C19.2,411.9,16.9,411.9,16.9,411.9z"/>
	<path fill="#FFFFFF" d="M-175,408.8c-5.4,0-9.7,4.4-9.7,9.7c0,5.4,4.3,9.7,9.7,9.7s9.7-4.3,9.7-9.7
		C-165.2,413.2-169.6,408.8-175,408.8z M-175,424.6c-3.4,0-6.1-2.7-6.1-6.1s2.7-6.1,6.1-6.1s6.1,2.7,6.1,6.1
		C-168.8,421.9-171.6,424.6-175,424.6z"/>
	<path fill="#FFFFFF" d="M-111.6,408.8H-132c-2.4,0-4.3,1.9-4.3,4.3v5.2c0,2.4,1.9,4.3,4.3,4.3h20.4c2.4,0,4.3-1.9,4.3-4.3v-5.2
		C-107.3,410.8-109.2,408.8-111.6,408.8z"/>
	<path fill="#FFFFFF" d="M-114.1,401.7v-24.5h-27.8h-18.6c0,0-2.5,8.6-5.2,15.4c-9.3,0.1-25.1,0-25.1,0v19.8h-2.2v10.3h5.7v-5
		c0.4-6.4,5.8-11.5,12.3-11.5c6.8,0,12.3,5.5,12.3,12.3v4.2h23.2V406h21C-116.1,406-114.1,404.1-114.1,401.7z M-157.7,381h14.5v11.7
		h-18.5C-160.1,388.4-158.6,383.8-157.7,381z M-143.1,419.9h-15.7v-5.7h15.6L-143.1,419.9L-143.1,419.9z"/>
	<polygon fill="#FFFFFF" points="-114.1,368.9 -135.3,368.9 -140.8,374.4 -114.1,374.4 	"/>
	<path fill="#FFFFFF" d="M-101.5,401.4v4.3H11.8v-4.3c3.5-3.1,5.8-7.7,5.8-12.8c0-9.4-7.6-17.1-17.1-17.1h-16.1v-2.3h2.8v-3.4h-18.4
		v3.3h2.8v2.4H-64v-2.4h2.8v-3.3h-18.4v3.3h2.8v2.5H-90c-9.4,0-17.1,7.6-17.1,17.1C-107.3,393.7-105,398.3-101.5,401.4z"/>
</g>
</svg>
