<?xml version="1.0" encoding="utf-8"?>
<!-- Generator: Adobe Illustrator 18.1.1, SVG Export Plug-In . SVG Version: 6.00 Build 0)  -->
<svg version="1.1" id="Layer_1" xmlns="http://www.w3.org/2000/svg" xmlns:xlink="http://www.w3.org/1999/xlink" x="0px" y="0px"
	 width="168px" height="66px" viewBox="0 0 168 66" enable-background="new 0 0 168 66" xml:space="preserve">
<g>
	<path fill="#FFFFFF" d="M152.3,51.2c-3.4,0-6.1,2.7-6.1,6.1c0,3.4,2.7,6.1,6.1,6.1c3.4,0,6.1-2.7,6.1-6.1
		C158.5,53.9,155.7,51.2,152.3,51.2z M152.3,61.2c-2.1,0-3.9-1.7-3.9-3.9c0-2.1,1.7-3.9,3.9-3.9c2.1,0,3.9,1.7,3.9,3.9
		C156.2,59.4,154.5,61.2,152.3,61.2z"/>
	<path fill="#FFFFFF" d="M138.8,51.2c-3.4,0-6.1,2.7-6.1,6.1c0,3.4,2.7,6.1,6.1,6.1c3.4,0,6.1-2.7,6.1-6.1
		C144.9,53.9,142.2,51.2,138.8,51.2z M138.8,61.2c-2.1,0-3.9-1.7-3.9-3.9c0-2.1,1.7-3.9,3.9-3.9c2.1,0,3.9,1.7,3.9,3.9
		C142.7,59.4,140.9,61.2,138.8,61.2z"/>
	<path fill="#FFFFFF" d="M93.2,42c-2.5,0-4.5,2.1-4.5,4.6c0,2.5,2.1,4.5,4.6,4.5c2.5,0,4.5-2.1,4.5-4.6C97.8,44,95.7,42,93.2,42z
		 M93.3,49.4c-1.6,0-2.9-1.3-2.9-2.8c0-1.6,1.3-2.9,2.8-2.9c1.6,0,2.9,1.3,2.9,2.8C96.1,48.1,94.8,49.4,93.3,49.4z"/>
	<path fill="#FFFFFF" d="M117.9,41.9c-2.5,0-4.5,2.1-4.5,4.6c0,2.5,2.1,4.5,4.6,4.5c2.5,0,4.5-2.1,4.5-4.6
		C122.5,43.9,120.4,41.9,117.9,41.9z M117.9,49.3c-1.6,0-2.9-1.3-2.9-2.8c0-1.6,1.3-2.9,2.8-2.9c1.6,0,2.9,1.3,2.9,2.8
		C120.8,48,119.5,49.3,117.9,49.3z"/>
	<path fill="#FFFFFF" d="M128.4,38.6l-8.8-2l-1.3-4.1c-0.3-0.8-0.8-1.3-1.1-1.3l-15.6,0.1c-0.9,0-2.1,0.6-2.7,1.3l-3,4.2l-12.3,2
		c-0.6,0-2.4,0.6-2.4,1.4l-1.4,6.2c0,0.8,0.5,1.4,1.2,1.4l6.4,0c-0.1-0.4-0.1-0.8-0.1-1.2c0-3.4,2.7-6.1,6.1-6.1
		c3.4,0,6.1,2.7,6.1,6.1c0,0.4,0,0.8-0.1,1.2l12.7-0.1c-0.1-0.4-0.1-0.8-0.1-1.2c0-3.4,2.7-6.1,6.1-6.1c3.4,0,6.1,2.7,6.1,6.1
		c0,0.4,0,0.8-0.1,1.2l4.5,0c0.6,0,1.2-0.6,1.2-1.4l0-6.2C129.6,39.2,129.1,38.6,128.4,38.6z M97.8,38.6l-0.4-1.3l2.7-3.8
		c0.2-0.3,1-0.7,1.4-0.7l9.1-0.1l0,5.9L97.8,38.6z M112.1,38.6l0-5.9l3.4,0l0,5.9L112.1,38.6z"/>
	<path fill="#FFFFFF" d="M64.2,12.7c-2.5,0-4.5,2.1-4.5,4.6c0,2.5,2.1,4.5,4.6,4.5c2.5,0,4.5-2.1,4.5-4.6
		C68.7,14.7,66.7,12.7,64.2,12.7z M64.2,20.1c-1.6,0-2.9-1.3-2.9-2.8c0-1.6,1.3-2.9,2.8-2.9c1.6,0,2.9,1.3,2.9,2.8
		C67.1,18.8,65.8,20.1,64.2,20.1z"/>
	<path fill="#FFFFFF" d="M88.9,12.6c-2.5,0-4.5,2.1-4.5,4.6c0,2.5,2.1,4.5,4.6,4.5c2.5,0,4.5-2.1,4.5-4.6
		C93.4,14.6,91.4,12.6,88.9,12.6z M88.9,20c-1.6,0-2.9-1.3-2.9-2.8c0-1.6,1.3-2.9,2.8-2.9c1.6,0,2.9,1.3,2.9,2.8
		C91.8,18.7,90.5,20,88.9,20z"/>
	<path fill="#FFFFFF" d="M51.8,18.5l6.4,0c-0.1-0.4-0.1-0.8-0.1-1.2c0-3.4,2.7-6.1,6.1-6.1c3.4,0,6.1,2.7,6.1,6.1
		c0,0.4,0,0.8-0.1,1.2l12.7-0.1c-0.1-0.4-0.1-0.8-0.1-1.2c0-3.4,2.7-6.1,6.1-6.1c3.4,0,6.1,2.7,6.1,6.1c0,0.4,0,0.8-0.1,1.2l4.5,0
		c0.6,0,1.2-0.6,1.2-1.4l0-6.2c0-0.8-0.5-1.4-1.2-1.4l-8.8-2l-1.3-4.1c-0.3-0.8-0.8-1.3-1.1-1.3L72.5,1.9c-0.9,0-2.1,0.6-2.7,1.3
		l-3,4.2l-12.3,2c-0.6,0-2.4,0.6-2.4,1.4l-1.4,6.2C50.7,17.9,51.2,18.5,51.8,18.5z M86.4,3.4l0,5.9l-3.4,0l0-5.9L86.4,3.4z
		 M71.1,4.1c0.2-0.3,1-0.7,1.4-0.7l9.1-0.1l0,5.9l-12.9,0L68.4,8L71.1,4.1z"/>
	<path fill="#FFFFFF" d="M120.4,12.6c-2.5,0-4.5,2.1-4.5,4.6c0,2.5,2.1,4.5,4.6,4.5c2.5,0,4.5-2.1,4.5-4.6
		C125,14.6,122.9,12.6,120.4,12.6z M120.5,20c-1.6,0-2.9-1.3-2.9-2.8c0-1.6,1.3-2.9,2.8-2.9c1.6,0,2.9,1.3,2.9,2.8
		C123.3,18.7,122,20,120.5,20z"/>
	<path fill="#FFFFFF" d="M145.1,12.4c-2.5,0-4.5,2.1-4.5,4.6c0,2.5,2.1,4.5,4.6,4.5c2.5,0,4.5-2.1,4.5-4.6
		C149.7,14.4,147.6,12.4,145.1,12.4z M145.2,19.8c-1.6,0-2.9-1.3-2.9-2.8c0-1.6,1.3-2.9,2.8-2.9c1.6,0,2.9,1.3,2.9,2.8
		C148,18.6,146.7,19.8,145.2,19.8z"/>
	<path fill="#FFFFFF" d="M108.1,18.4l6.4,0c-0.1-0.4-0.1-0.8-0.1-1.2c0-3.4,2.7-6.1,6.1-6.1c3.4,0,6.1,2.7,6.1,6.1
		c0,0.4,0,0.8-0.1,1.2l12.7-0.1c-0.1-0.4-0.1-0.8-0.1-1.2c0-3.4,2.7-6.1,6.1-6.1c3.4,0,6.1,2.7,6.1,6.1c0,0.4,0,0.8-0.1,1.2l4.5,0
		c0.6,0,1.2-0.6,1.2-1.4l0-6.2c0-0.8-0.5-1.4-1.2-1.4l-8.8-2L145.4,3c-0.3-0.8-0.8-1.3-1.1-1.3l-15.6,0.1c-0.9,0-2.1,0.6-2.7,1.3
		l-3,4.2l-12.3,2c-0.6,0-2.4,0.6-2.4,1.4l-1.4,6.2C106.9,17.7,107.4,18.4,108.1,18.4z M142.6,3.3l0,5.9l-3.4,0l0-5.9L142.6,3.3z
		 M127.3,4c0.2-0.3,1-0.7,1.4-0.7l9.1-0.1l0,5.9l-12.9,0l-0.4-1.3L127.3,4z"/>
	<path fill="#FFFFFF" d="M63.5,47.5c-4.2,0-7.7,3.4-7.7,7.7c0,4.2,3.4,7.7,7.7,7.7c4.2,0,7.7-3.4,7.7-7.7
		C71.2,50.9,67.8,47.5,63.5,47.5z M63.5,60c-2.7,0-4.8-2.2-4.8-4.8c0-2.7,2.2-4.8,4.8-4.8c2.7,0,4.8,2.2,4.8,4.8
		C68.4,57.9,66.2,60,63.5,60z"/>
	<path fill="#FFFFFF" d="M22.9,47.5c-4.2,0-7.7,3.4-7.7,7.7c0,4.2,3.4,7.7,7.7,7.7c4.2,0,7.7-3.4,7.7-7.7
		C30.6,50.9,27.2,47.5,22.9,47.5z M22.9,60c-2.7,0-4.8-2.2-4.8-4.8c0-2.7,2.2-4.8,4.8-4.8c2.7,0,4.8,2.2,4.8,4.8
		C27.8,57.9,25.6,60,22.9,60z"/>
	<path fill="#FFFFFF" d="M51.6,47.5H35c-1.4,0-2.6,1.2-2.6,2.6v7.1c0,1.4,1.2,2.6,2.6,2.6h16.6c1.4,0,2.6-1.2,2.6-2.6v-7.1
		C54.2,48.6,53.1,47.5,51.6,47.5z"/>
	<path fill="#FFFFFF" d="M3.5,52.4v6.3c0,0.7,0.6,1.3,1.3,1.3h7.8c0.7,0,1.3-0.6,1.3-1.3v-6.3H3.5z"/>
	<path fill="#FFFFFF" d="M18.5,46.9c0.1,0,0.1-0.1,0.2-0.1c0.2-0.1,0.4-0.2,0.6-0.3c0,0,0.1,0,0.1,0c0.2-0.1,0.5-0.2,0.7-0.3
		c0,0,0.1,0,0.1,0c0.2-0.1,0.5-0.1,0.7-0.2c0,0,0.1,0,0.1,0c0.3-0.1,0.5-0.1,0.8-0.1c0.4,0,0.7-0.1,1.1-0.1h15V23.4
		c0,0-29.4,0-29.4,0h0.2c-0.7,0-1.1,0.6-1.3,1.3L3.5,36.9v13.8h11.1C15.6,49.1,16.9,47.8,18.5,46.9z M6.7,37L10,26.4
		c1.1,0,9.5,0,11.4,0V37H6.7z"/>
	<path fill="#FFFFFF" d="M163.7,54.4V40l-1.7-6.1h-1.2v17.4l-3.3-4.6l0,0v0h-0.1l0-23.2h-106l-3.9-3.9v0h0l0,0v0h-2.9v23.4h0v2.9
		h24.3l10,10l0,0v0H130l0,0l0,0l4.5-6.3H156l4.1,5.7c-0.1,0.2-0.1,0.4-0.1,0.6c0,1.2,1,2.2,2.2,2.2c1.2,0,2.2-1,2.2-2.2
		C164.3,55.3,164.1,54.8,163.7,54.4z M47.5,26.4h20.4v16.5H47.5V26.4z M128.5,52.9H80.1l-9.3-9.3l0-17.2h83.7v20.3H133v0l0,0
		L128.5,52.9z"/>
</g>
</svg>
