<?xml version="1.0" encoding="UTF-8" standalone="no"?>
<svg width="599px" height="176px" viewBox="0 0 599 176" version="1.1" xmlns="http://www.w3.org/2000/svg" xmlns:xlink="http://www.w3.org/1999/xlink" xmlns:sketch="http://www.bohemiancoding.com/sketch/ns">
    <!-- Generator: Sketch 3.2.2 (9983) - http://www.bohemiancoding.com/sketch -->
    <title>job-type-tanker</title>
    <desc>Created with Sketch.</desc>
    <defs></defs>
    <g id="Page-1" stroke="none" stroke-width="1" fill="none" fill-rule="evenodd" sketch:type="MSPage">
        <g id="Imported-Layers" sketch:type="MSLayerGroup" fill="#FFFFFF">
            <path d="M342.144,121.264 C326.921,121.264 314.8,133.667 314.8,148.608 C314.8,163.831 327.203,175.952 342.144,175.952 C357.366,175.952 369.488,163.831 369.488,148.608 C369.488,133.667 357.084,121.264 342.144,121.264 L342.144,121.264 Z M342.144,165.804 C332.559,165.804 324.948,158.193 324.948,148.608 C324.948,139.023 332.559,131.412 342.144,131.412 C351.728,131.412 359.339,139.023 359.339,148.608 C359.339,158.193 351.728,165.804 342.144,165.804 L342.144,165.804 Z" id="Fill-1" sketch:type="MSShapeGroup"></path>
            <path d="M280.972,121.264 C265.749,121.264 253.628,133.667 253.628,148.608 C253.628,163.831 265.749,175.952 280.972,175.952 C296.194,175.952 308.316,163.831 308.316,148.608 C308.034,133.667 295.912,121.264 280.972,121.264 L280.972,121.264 Z M280.972,165.804 C271.387,165.804 263.776,158.193 263.776,148.608 C263.776,139.023 271.387,131.412 280.972,131.412 C290.556,131.412 298.168,139.023 298.168,148.608 C298.168,158.193 290.275,165.804 280.972,165.804 L280.972,165.804 Z" id="Fill-2" sketch:type="MSShapeGroup"></path>
            <path d="M551.594,121.264 C536.371,121.264 524.25,133.667 524.25,148.608 C524.25,163.831 536.371,175.952 551.594,175.952 C566.816,175.952 578.938,163.831 578.938,148.608 C578.938,133.667 566.816,121.264 551.594,121.264 L551.594,121.264 Z M551.594,165.804 C542.009,165.804 534.398,158.193 534.398,148.608 C534.398,139.023 542.009,131.412 551.594,131.412 C561.178,131.412 568.789,139.023 568.789,148.608 C568.789,158.193 561.178,165.804 551.594,165.804 L551.594,165.804 Z" id="Fill-3" sketch:type="MSShapeGroup"></path>
            <path d="M490.14,121.264 C474.918,121.264 462.796,133.667 462.796,148.608 C462.796,163.831 474.918,175.952 490.14,175.952 C505.362,175.952 517.484,163.831 517.484,148.608 C517.766,133.667 505.362,121.264 490.14,121.264 L490.14,121.264 Z M490.14,165.804 C480.556,165.804 472.944,158.193 472.944,148.608 C472.944,139.023 480.556,131.412 490.14,131.412 C499.724,131.412 507.336,139.023 507.336,148.608 C507.336,158.193 499.724,165.804 490.14,165.804 L490.14,165.804 Z" id="Fill-4" sketch:type="MSShapeGroup"></path>
            <path d="M409.799,126.338 L454.903,126.338 L454.903,152.273 L409.799,152.273 L409.799,126.338 Z" id="Fill-5" sketch:type="MSShapeGroup"></path>
            <path d="M384.71,152.273 L389.784,152.273 L389.784,160.166 L384.71,160.166 L384.71,164.394 L401.906,164.394 L401.906,160.166 L396.832,160.166 L396.832,152.273 L401.906,152.273 L401.906,126.902 L384.71,126.902 L384.71,152.273" id="Fill-6" sketch:type="MSShapeGroup"></path>
            <path d="M592.469,130.003 C590.777,126.056 588.522,123.237 586.831,121.264 L581.193,121.264 L578.938,124.365 C579.22,124.647 588.24,131.13 587.113,145.225 L587.113,161.857 L594.724,161.857 L594.724,145.507 L594.724,142.688 L598.953,142.688 L598.953,130.003 L592.469,130.003" id="Fill-7" sketch:type="MSShapeGroup"></path>
            <path d="M51.507,121.264 C36.285,121.264 24.163,133.667 24.163,148.608 C24.163,163.831 36.285,175.952 51.507,175.952 C66.73,175.952 78.851,163.831 78.851,148.608 C79.133,133.667 66.73,121.264 51.507,121.264 L51.507,121.264 Z M51.507,165.804 C41.923,165.804 34.311,158.193 34.311,148.608 C34.311,139.023 41.922,131.412 51.507,131.412 C61.092,131.412 68.703,139.023 68.703,148.608 C68.985,158.193 61.092,165.804 51.507,165.804 L51.507,165.804 Z" id="Fill-8" sketch:type="MSShapeGroup"></path>
            <path d="M230.23,121.264 L172.723,121.264 C165.958,121.264 160.602,126.62 160.602,133.385 L160.602,148.044 C160.602,154.81 165.958,160.166 172.723,160.166 L230.23,160.166 C236.996,160.166 242.352,154.81 242.352,148.044 L242.352,133.385 C242.352,126.902 236.996,121.264 230.23,121.264" id="Fill-9" sketch:type="MSShapeGroup"></path>
            <path d="M223.183,101.249 L223.183,32.184 L92.382,32.184 C92.382,32.184 85.335,56.427 77.724,75.597 C51.507,75.878 6.967,75.597 6.967,75.597 L6.967,131.412 L0.766,131.412 L0.766,160.448 L16.834,160.448 L16.834,146.353 C17.961,128.311 33.184,113.935 51.507,113.935 C70.676,113.935 86.181,129.439 86.181,148.608 L86.181,160.448 L151.581,160.448 L151.581,113.371 L210.779,113.371 C217.545,113.371 223.183,108.015 223.183,101.249 L223.183,101.249 Z M100.557,42.896 L141.433,42.896 L141.433,75.878 L89.281,75.878 C93.51,63.757 97.738,50.789 100.557,42.896 L100.557,42.896 Z M141.433,152.555 L97.175,152.555 L97.175,136.486 L141.151,136.486 L141.433,152.555 L141.433,152.555 Z" id="Fill-10" sketch:type="MSShapeGroup"></path>
            <path d="M223.183,8.787 L163.421,8.787 L147.916,24.291 L223.183,24.291 L223.183,8.787" id="Fill-11" sketch:type="MSShapeGroup"></path>
            <path d="M258.702,100.404 L258.702,112.525 L578.092,112.525 L578.092,100.404 C587.958,91.665 594.442,78.697 594.442,64.321 C594.442,37.822 573.018,16.116 546.238,16.116 L500.852,16.116 L500.852,9.632 L508.745,9.632 L508.745,0.048 L456.876,0.048 L456.876,9.351 L464.769,9.351 L464.769,16.116 L364.414,16.116 L364.414,9.351 L372.307,9.351 L372.307,0.048 L320.438,0.048 L320.438,9.351 L328.331,9.351 L328.331,16.398 L291.12,16.398 C264.622,16.398 242.916,37.822 242.916,64.603 C242.352,78.697 248.836,91.665 258.702,100.404" id="Fill-12" sketch:type="MSShapeGroup"></path>
        </g>
    </g>
</svg>