<?xml version="1.0" encoding="utf-8"?>
<!-- Generator: Adobe Illustrator 18.1.1, SVG Export Plug-In . SVG Version: 6.00 Build 0)  -->
<svg version="1.1" id="Layer_1" xmlns="http://www.w3.org/2000/svg" xmlns:xlink="http://www.w3.org/1999/xlink" x="0px" y="0px"
	 width="498.1px" height="124.8px" viewBox="-56 334.2 498.1 124.8" enable-background="new -56 334.2 498.1 124.8"
	 xml:space="preserve">
<path fill="#FFFFFF" d="M425.9,347.8H309.7c-6.4,0-12.8,5.1-14.2,11.4l-4.4,20.1c-1.4,6.3-2.5,11.4-2.5,11.4s-1.1,5.1-2.5,11.4
	l-3.5,15.7c-1.4,6.3,2.7,11.4,9.2,11.4h2.2l-16.5,22.9l35.4-22.9h95c6.4,0,12.8-5.1,14.2-11.4l4.4-20.1c1.4-6.3,2.5-11.4,2.5-11.4
	s1.1-5.1,2.5-11.4l3.5-15.7C436.4,352.9,432.3,347.8,425.9,347.8z"/>
<path fill="#13406D" d="M412.6,405.7l-0.8-3.2c-1-3,0-2.7,0-2.7c0-1.8-2.4-2.5-2.4-2.5l-21.5-6.4c-0.7-3.9-4.1-8.9-4.1-8.9h3.7
	c2.1,0.1,0-2.2,0-2.2l-2.2-2.7c-0.8-1-1.8-1-1.8-1h-1.8c-6.7-13.8-43.3-18.1-43.3-18.1c0.2-1.3-1-1.8-1-1.8c-0.7,0-1.2,1-1.2,1v4.9
	l-2.7-0.2l-2,14.3l-0.1,23.8h-4.8v-42.1h-2.5h-18l-10.7,48.5l-2.8,12.6h116.2c4.5,0,4.5-4.7,4.5-4.7v-6.7
	C413.4,405.2,412.6,405.7,412.6,405.7z"/>
<g>
	<g>
		<path fill="#FFFFFF" d="M-29.3,391.8h-12.8l7.8-37.3h-10.4l2.3-10.6h33.7l-2.3,10.6h-10.5L-29.3,391.8z"/>
		<path fill="#FFFFFF" d="M4.8,374.4l-3.7,17.4h-12.8l10.1-47.9h12.7c5.5,0,9.7,1.1,12.6,3.3s4.4,5.5,4.4,9.9c0,3.4-0.8,6.4-2.3,8.9
			s-3.9,4.5-6.9,5.8l7.3,16.9l1.3,3.1h-14l-6.4-17.4C7.1,374.4,4.8,374.4,4.8,374.4z M6.9,364.6h1.7c2.1,0,3.7-0.6,4.9-1.8
			c1.2-1.2,1.8-2.9,1.8-5c0-1.4-0.4-2.4-1.1-3.1c-0.8-0.7-1.9-1.1-3.3-1.1H9.2L6.9,364.6z"/>
		<path fill="#FFFFFF" d="M78.3,343.9l-6.5,30.5c-1.3,6.1-3.7,10.7-7.4,13.6c-3.6,2.9-8.6,4.4-14.8,4.4c-2.9,0-5.5-0.6-7.7-1.8
			c-2.2-1.2-4-2.9-5.2-5c-1.2-2.2-1.8-4.6-1.8-7.2c0-1.4,0.1-2.8,0.4-4.2l6.5-30.2h12.8l-6.4,29.9c-0.3,1.5-0.5,2.7-0.5,3.8
			c0,2.8,1.3,4.2,4,4.2c2.1,0,3.7-0.7,4.8-2.1c1.2-1.4,2.1-3.6,2.7-6.5l6.3-29.3h12.8V343.9z"/>
		<path fill="#FFFFFF" d="M106.7,353.8c-2.4,0-4.5,0.9-6.4,2.6c-1.9,1.7-3.4,4.1-4.5,7c-1.1,3-1.6,6.2-1.6,9.7
			c0,2.9,0.6,5.1,1.8,6.6c1.2,1.4,3,2.2,5.3,2.2c1.8,0,3.6-0.2,5.5-0.7c1.9-0.4,4-1.2,6.6-2.3v10.6c-4.4,2-9.2,2.9-14.4,2.9
			c-5.7,0-10.1-1.6-13.1-4.9c-3.1-3.2-4.6-7.8-4.6-13.8c0-5.8,1.1-11.1,3.3-16s5.2-8.5,9-11s8.2-3.7,13.1-3.7c5.8,0,11,1.4,15.8,4.3
			l-4.8,10c-2-1.2-3.9-2.1-5.6-2.7C110.3,354.1,108.6,353.8,106.7,353.8z"/>
		<path fill="#FFFFFF" d="M160.8,391.8h-14.4l-5.7-18.9l-3.2,1.8l-3.5,17.1h-12.8l10.1-47.9h12.8l-4.4,20.4l1.2-1.9
			c1.9-3.1,3.3-5.3,4.3-6.4l9.8-12.1h15L151.9,366L160.8,391.8z"/>
		<path fill="#FFFFFF" d="M194.5,391.8h-28.4l10.1-47.9h28.4l-2.1,10.4h-15.6l-1.5,7.5h14.5l-2.3,10.4H183l-1.9,9h15.6L194.5,391.8z
			"/>
		<path fill="#FFFFFF" d="M220.3,374.4l-3.7,17.4h-12.8l10.1-47.9h12.7c5.5,0,9.7,1.1,12.6,3.3s4.4,5.5,4.4,9.9
			c0,3.4-0.8,6.4-2.3,8.9s-3.9,4.5-6.9,5.8l7.3,16.9l1.3,3.1h-14l-6.4-17.4C222.6,374.4,220.3,374.4,220.3,374.4z M222.4,364.6h1.7
			c2.1,0,3.7-0.6,4.9-1.8c1.2-1.2,1.8-2.9,1.8-5c0-1.4-0.4-2.4-1.1-3.1c-0.8-0.7-1.9-1.1-3.3-1.1h-1.7L222.4,364.6z"/>
		<path fill="#FFFFFF" d="M278.3,377.1c0,4.8-1.6,8.6-4.8,11.3c-3.2,2.7-7.7,4-13.4,4c-2.4,0-4.7-0.3-6.8-0.8
			c-2.1-0.5-4-1.3-5.5-2.3v-11.5c1.8,1.2,3.9,2.1,6.3,2.9s4.5,1.2,6.4,1.2c1.6,0,2.8-0.3,3.7-1c0.8-0.7,1.2-1.6,1.2-2.9
			c0-0.6-0.1-1.1-0.4-1.7c-0.3-0.5-0.6-1-1.1-1.5s-1.8-1.6-3.9-3.4c-2.6-2.1-4.4-4.2-5.6-6.3s-1.7-4.5-1.7-7c0-2.9,0.7-5.4,2.1-7.7
			c1.4-2.3,3.5-4.1,6.1-5.3c2.6-1.3,5.5-1.9,8.8-1.9c5.2,0,9.9,1.2,14.1,3.5l-4.4,9.7c-3.7-1.9-6.9-2.9-9.5-2.9
			c-1.4,0-2.5,0.3-3.2,0.9c-0.8,0.6-1.1,1.5-1.1,2.7c0,1.1,0.4,2.1,1.1,3s2.1,2.2,4.2,3.7c2.6,1.9,4.5,3.9,5.7,6
			C277.7,372,278.3,374.4,278.3,377.1z"/>
	</g>
</g>
<g>
	<g>
		<path fill="#FFFFFF" d="M-32.2,428.5l-3.7,17.4h-12.8l10.1-47.9h12.7c5.5,0,9.7,1.1,12.6,3.3c2.9,2.2,4.4,5.5,4.4,9.9
			c0,3.4-0.8,6.4-2.3,8.9c-1.6,2.5-3.9,4.5-6.9,5.8l7.3,16.9l1.3,3.1h-14l-6.4-17.4C-29.9,428.5-32.2,428.5-32.2,428.5z
			 M-30.1,418.8h1.7c2.1,0,3.7-0.6,4.9-1.8c1.2-1.2,1.8-2.9,1.8-5c0-1.4-0.4-2.4-1.1-3.1c-0.8-0.7-1.9-1.1-3.3-1.1h-1.7L-30.1,418.8
			z"/>
		<path fill="#FFFFFF" d="M23.3,446H-5.1L5,398.1h28.4l-2.1,10.4H15.7l-1.5,7.5h14.5l-2.4,10.4H11.8l-1.9,9h15.6L23.3,446z"/>
		<path fill="#FFFFFF" d="M72.5,412.4c0,5.5-1.9,9.8-5.6,13c-3.7,3.1-8.9,4.7-15.4,4.7h-2.8L45.4,446H32.6l10.1-47.9h12.2
			c5.7,0,10,1.2,13,3.7C71,404.3,72.5,407.8,72.5,412.4z M51,419.6h2.1c2,0,3.6-0.6,4.8-1.9c1.2-1.3,1.8-2.9,1.8-4.9
			c0-1.3-0.4-2.3-1.2-3.1c-0.8-0.8-1.9-1.2-3.2-1.2h-1.9L51,419.6z"/>
		<path fill="#FFFFFF" d="M102.7,397.3c5.7,0,10.1,1.6,13.3,4.9c3.2,3.2,4.7,7.8,4.7,13.6c0,5.8-1.1,11.1-3.3,15.9s-5.2,8.5-9,11.1
			s-8.3,3.8-13.3,3.8c-5.9,0-10.4-1.6-13.6-4.9c-3.2-3.3-4.8-7.8-4.8-13.6c0-5.8,1.1-11.1,3.4-16c2.3-4.8,5.3-8.5,9.2-11.1
			C93.2,398.6,97.6,397.3,102.7,397.3z M107.7,415.9c0-2.5-0.5-4.4-1.6-5.8c-1-1.4-2.6-2.1-4.6-2.1c-2.2,0-4.2,0.9-6,2.8
			c-1.8,1.8-3.3,4.4-4.3,7.6c-1.1,3.2-1.6,6.5-1.6,9.9c0,5.3,2.2,7.9,6.6,7.9c2.1,0,4-0.9,5.8-2.7c1.8-1.8,3.2-4.3,4.2-7.3
			C107.2,422.9,107.7,419.5,107.7,415.9z"/>
		<path fill="#FFFFFF" d="M140.3,428.5l-3.7,17.4h-12.8l10.2-47.8h12.7c5.5,0,9.7,1.1,12.6,3.3c2.9,2.2,4.4,5.5,4.4,9.9
			c0,3.4-0.8,6.4-2.3,8.9s-3.9,4.5-6.9,5.8l7.3,16.9l1.3,3.1h-14l-6.4-17.4h-2.4V428.5z M142.4,418.8h1.7c2.1,0,3.7-0.6,4.9-1.8
			c1.2-1.2,1.8-2.9,1.8-5c0-1.4-0.4-2.4-1.1-3.1c-0.8-0.7-1.9-1.1-3.3-1.1h-1.7L142.4,418.8z"/>
		<path fill="#FFFFFF" d="M186.9,446h-12.8l7.8-37.3h-10.4l2.3-10.6h33.7l-2.3,10.6h-10.4L186.9,446z"/>
	</g>
</g>
</svg>
