<?xml version="1.0" encoding="utf-8"?>
<!-- Generator: Adobe Illustrator 18.1.1, SVG Export Plug-In . SVG Version: 6.00 Build 0)  -->
<svg version="1.1" id="Layer_1" xmlns="http://www.w3.org/2000/svg" xmlns:xlink="http://www.w3.org/1999/xlink" x="0px" y="0px"
	 width="782.7px" height="124.8px" viewBox="0 0 782.7 124.8" enable-background="new 0 0 782.7 124.8" xml:space="preserve">
<path fill="#FFFFFF" d="M481.9,13.6H365.7c-6.4,0-12.8,5.1-14.2,11.4l-4.4,20.1c-1.4,6.3-2.5,11.4-2.5,11.4s-1.1,5.1-2.5,11.4
	l-3.5,15.7c-1.4,6.3,2.7,11.4,9.2,11.4h2.2l-16.5,22.9L368.9,95h95c6.4,0,12.8-5.1,14.2-11.4l4.4-20.1c1.4-6.3,2.5-11.4,2.5-11.4
	s1.1-5.1,2.5-11.4L491,25C492.4,18.7,488.3,13.6,481.9,13.6z"/>
<path fill="#13406D" d="M468.6,71.5l-0.8-3.2c-1-3,0-2.7,0-2.7c0-1.8-2.4-2.5-2.4-2.5l-21.5-6.4c-0.7-3.9-4.1-8.9-4.1-8.9h3.7
	c2.1,0.1,0-2.2,0-2.2l-2.2-2.7c-0.8-1-1.8-1-1.8-1h-1.8c-6.7-13.8-43.3-18.1-43.3-18.1c0.2-1.3-1-1.8-1-1.8c-0.7,0-1.2,1-1.2,1v4.9
	l-2.7-0.2L387.5,42l-0.1,23.8h-4.8V23.7h-2.5h-18l-10.7,48.5l-2.8,12.6l116.2,0c4.5,0,4.5-4.7,4.5-4.7v-6.7
	C469.4,71,468.6,71.5,468.6,71.5z"/>
<g>
	<g>
		<path fill="#FFFFFF" d="M26.7,57.6H13.9l7.8-37.3H11.3l2.3-10.6h33.7l-2.3,10.6H34.5L26.7,57.6z"/>
		<path fill="#FFFFFF" d="M60.8,40.2l-3.7,17.4H44.3L54.4,9.7h12.7c5.5,0,9.7,1.1,12.6,3.3c2.9,2.2,4.4,5.5,4.4,9.9
			c0,3.4-0.8,6.4-2.3,8.9c-1.5,2.5-3.9,4.5-6.9,5.8l7.3,16.9l1.3,3.1h-14l-6.4-17.4H60.8z M62.9,30.4h1.7c2.1,0,3.7-0.6,4.9-1.8
			c1.2-1.2,1.8-2.9,1.8-5c0-1.4-0.4-2.4-1.1-3.1c-0.8-0.7-1.9-1.1-3.3-1.1h-1.7L62.9,30.4z"/>
		<path fill="#FFFFFF" d="M134.3,9.7l-6.5,30.5c-1.3,6.1-3.7,10.7-7.4,13.6c-3.6,2.9-8.6,4.4-14.8,4.4c-2.9,0-5.5-0.6-7.7-1.8
			c-2.2-1.2-4-2.9-5.2-5c-1.2-2.2-1.8-4.6-1.8-7.2c0-1.4,0.1-2.8,0.4-4.2l6.5-30.2h12.8l-6.4,29.9c-0.3,1.5-0.5,2.7-0.5,3.8
			c0,2.8,1.3,4.2,4,4.2c2.1,0,3.7-0.7,4.8-2.1c1.2-1.4,2.1-3.6,2.7-6.5l6.3-29.3H134.3z"/>
		<path fill="#FFFFFF" d="M162.7,19.6c-2.4,0-4.5,0.9-6.4,2.6c-1.9,1.7-3.4,4.1-4.5,7c-1.1,3-1.6,6.2-1.6,9.7c0,2.9,0.6,5.1,1.8,6.6
			c1.2,1.4,3,2.2,5.3,2.2c1.8,0,3.6-0.2,5.5-0.7c1.9-0.4,4-1.2,6.6-2.3v10.6c-4.4,2-9.2,2.9-14.4,2.9c-5.7,0-10.1-1.6-13.1-4.9
			c-3.1-3.2-4.6-7.8-4.6-13.8c0-5.8,1.1-11.1,3.3-16c2.2-4.9,5.2-8.5,9-11c3.8-2.5,8.2-3.7,13.1-3.7c5.8,0,11,1.4,15.8,4.3l-4.8,10
			c-2-1.2-3.9-2.1-5.6-2.7C166.3,19.9,164.6,19.6,162.7,19.6z"/>
		<path fill="#FFFFFF" d="M216.8,57.6h-14.4l-5.7-18.9l-3.2,1.8L190,57.6h-12.8l10.1-47.9h12.8l-4.4,20.4l1.2-1.9
			c1.9-3.1,3.3-5.3,4.3-6.4L211,9.7h15l-18.1,22.1L216.8,57.6z"/>
		<path fill="#FFFFFF" d="M250.5,57.6h-28.4l10.1-47.9h28.4l-2.1,10.4h-15.6l-1.5,7.5h14.5L253.6,38H239l-1.9,9h15.6L250.5,57.6z"/>
		<path fill="#FFFFFF" d="M276.3,40.2l-3.7,17.4h-12.8l10.1-47.9h12.7c5.5,0,9.7,1.1,12.6,3.3c2.9,2.2,4.4,5.5,4.4,9.9
			c0,3.4-0.8,6.4-2.3,8.9c-1.5,2.5-3.9,4.5-6.9,5.8l7.3,16.9l1.3,3.1h-14l-6.4-17.4H276.3z M278.4,30.4h1.7c2.1,0,3.7-0.6,4.9-1.8
			c1.2-1.2,1.8-2.9,1.8-5c0-1.4-0.4-2.4-1.1-3.1c-0.8-0.7-1.9-1.1-3.3-1.1h-1.7L278.4,30.4z"/>
		<path fill="#FFFFFF" d="M334.3,42.9c0,4.8-1.6,8.6-4.8,11.3c-3.2,2.7-7.7,4-13.4,4c-2.4,0-4.7-0.3-6.8-0.8c-2.1-0.5-4-1.3-5.5-2.3
			V43.6c1.8,1.2,3.9,2.1,6.3,2.9c2.4,0.8,4.5,1.2,6.4,1.2c1.6,0,2.8-0.3,3.7-1c0.8-0.7,1.2-1.6,1.2-2.9c0-0.6-0.1-1.1-0.4-1.7
			c-0.3-0.5-0.6-1-1.1-1.5c-0.5-0.5-1.8-1.6-3.9-3.4c-2.6-2.1-4.4-4.2-5.6-6.3c-1.2-2.1-1.7-4.5-1.7-7c0-2.9,0.7-5.4,2.1-7.7
			c1.4-2.3,3.5-4.1,6.1-5.3c2.6-1.3,5.5-1.9,8.8-1.9c5.2,0,9.9,1.2,14.1,3.5l-4.4,9.7c-3.7-1.9-6.9-2.9-9.5-2.9
			c-1.4,0-2.5,0.3-3.2,0.9c-0.8,0.6-1.1,1.5-1.1,2.7c0,1.1,0.4,2.1,1.1,3c0.7,0.9,2.1,2.2,4.2,3.7c2.6,1.9,4.5,3.9,5.7,6
			C333.7,37.8,334.3,40.2,334.3,42.9z"/>
	</g>
</g>
<g>
	<g>
		<path fill="#FFFFFF" d="M23.8,94.3l-3.7,17.4H7.3l10.1-47.9h12.7c5.5,0,9.7,1.1,12.6,3.3c2.9,2.2,4.4,5.5,4.4,9.9
			c0,3.4-0.8,6.4-2.3,8.9c-1.6,2.5-3.9,4.5-6.9,5.8l7.3,16.9l1.3,3.1h-14l-6.4-17.4H23.8z M25.9,84.6h1.7c2.1,0,3.7-0.6,4.9-1.8
			c1.2-1.2,1.8-2.9,1.8-5c0-1.4-0.4-2.4-1.1-3.1c-0.8-0.7-1.9-1.1-3.3-1.1h-1.7L25.9,84.6z"/>
		<path fill="#FFFFFF" d="M79.3,111.8H50.9L61,63.9h28.4l-2.1,10.4H71.7l-1.5,7.5h14.5l-2.4,10.4H67.8l-1.9,9h15.6L79.3,111.8z"/>
		<path fill="#FFFFFF" d="M128.5,78.2c0,5.5-1.9,9.8-5.6,13c-3.7,3.1-8.9,4.7-15.4,4.7h-2.8l-3.3,15.9H88.6l10.1-47.9h12.2
			c5.7,0,10,1.2,13,3.7C127,70.1,128.5,73.6,128.5,78.2z M107,85.4h2.1c2,0,3.6-0.6,4.8-1.9c1.2-1.3,1.8-2.9,1.8-4.9
			c0-1.3-0.4-2.3-1.2-3.1c-0.8-0.8-1.9-1.2-3.2-1.2h-1.9L107,85.4z"/>
		<path fill="#FFFFFF" d="M158.7,63.1c5.7,0,10.1,1.6,13.3,4.9c3.2,3.2,4.7,7.8,4.7,13.6c0,5.8-1.1,11.1-3.3,15.9
			c-2.2,4.8-5.2,8.5-9,11.1c-3.8,2.6-8.3,3.8-13.3,3.8c-5.9,0-10.4-1.6-13.6-4.9c-3.2-3.3-4.8-7.8-4.8-13.6s1.1-11.1,3.4-16
			c2.3-4.8,5.3-8.5,9.2-11.1C149.2,64.4,153.6,63.1,158.7,63.1z M163.7,81.7c0-2.5-0.5-4.4-1.6-5.8c-1-1.4-2.6-2.1-4.6-2.1
			c-2.2,0-4.2,0.9-6,2.8c-1.8,1.8-3.3,4.4-4.3,7.6c-1.1,3.2-1.6,6.5-1.6,9.9c0,5.3,2.2,7.9,6.6,7.9c2.1,0,4-0.9,5.8-2.7
			c1.8-1.8,3.2-4.3,4.2-7.3C163.2,88.7,163.7,85.3,163.7,81.7z"/>
		<path fill="#FFFFFF" d="M196.3,94.3l-3.7,17.4h-12.8L190,63.9h12.7c5.5,0,9.7,1.1,12.6,3.3c2.9,2.2,4.4,5.5,4.4,9.9
			c0,3.4-0.8,6.4-2.3,8.9c-1.5,2.5-3.9,4.5-6.9,5.8l7.3,16.9l1.3,3.1h-14l-6.4-17.4H196.3z M198.4,84.6h1.7c2.1,0,3.7-0.6,4.9-1.8
			c1.2-1.2,1.8-2.9,1.8-5c0-1.4-0.4-2.4-1.1-3.1c-0.8-0.7-1.9-1.1-3.3-1.1h-1.7L198.4,84.6z"/>
		<path fill="#FFFFFF" d="M242.9,111.8h-12.8l7.8-37.3h-10.4l2.3-10.6h33.7l-2.3,10.6h-10.4L242.9,111.8z"/>
	</g>
</g>
<g>
	<g>
		<path fill="#FFFFFF" d="M539.2,75.2c-1.5,8.8-2.9,16.4-9.5,24.1c-6,7.2-14.4,10.7-22.9,10.7c-6.9,0-13.4-4-17.3-8.9l14-13.6
			c0.5,2.8,3.2,6.2,6.2,6.2c9.1,0,10.5-15.4,11.5-21.5l9.3-59.6H549L539.2,75.2z"/>
		<path fill="#FFFFFF" d="M586.7,110c-29,0-43.5-22.2-39.1-50.2c4.4-28.2,26.6-49.9,54.9-49.9s43.5,21.7,39.1,49.9
			C637.2,87.8,615.7,110,586.7,110z M599.7,28.2c-17.5,0-30.4,15.5-32.8,30.9c-2.4,14.6,2.1,32.6,22.7,32.6s30.6-18,33-32.6
			C625,43.7,617.2,28.2,599.7,28.2z"/>
		<path fill="#FFFFFF" d="M655.6,12.4h23.1c17.6,0,27.5,6.9,24.4,25.8c-1.1,6.8-4.7,14.6-11.2,18.4c10.8,2,14.1,13.4,12.5,23.8
			c-3,18.6-17.4,27-34.7,27h-29.1L655.6,12.4z M661.5,92.6h3.9c10,0,18.6-1.3,20.7-13.6c1.9-12.3-8.1-12.9-17.4-12.9h-3L661.5,92.6z
			 M668,52h2.3c9.1,0,13.9-2.6,15.4-12.5c1.6-9.7-3.5-12.2-11.3-12.2h-2.4L668,52z"/>
		<path fill="#FFFFFF" d="M764.2,33.4c-2.8-4.8-6.8-7.8-13-7.8c-5.9,0-12.3,4.5-13.4,10.7c-2.5,16,36.3,9.3,31.2,41.2
			c-3,19-17,32.5-36.4,32.5c-13.1,0-21.5-7.6-26.3-18.5l13.9-11.7c1.4,7.3,6.9,13.9,14.9,13.9c7.6,0,13.4-6.4,14.5-13.7
			c1.5-9.8-7.1-12.6-14.1-15.5c-11.3-5-19.4-11.2-17-26c2.5-15.8,16.3-28.5,32.3-28.5c8.4,0,19.4,4.2,24.2,10.6L764.2,33.4z"/>
	</g>
</g>
</svg>
